<svg width="600" height="600" xmlns="http://www.w3.org/2000/svg">
 <title>oktas-2</title>

 <g>
  <title>Layer 1</title>
  <ellipse fill="#fff" stroke="#000" cx="300" cy="300" id="svg_1" rx="290" ry="290" stroke-width="13"/>
  <line fill="none" stroke="#000" stroke-width="13" x1="300" y1="306.58824" x2="300" y2="4.58824" id="svg_5"/>
  <line id="svg_2" y2="300" x2="588" y1="300" x1="300" stroke-width="13" stroke="#000" fill="none"/>
  <path d="m307.64703,14.70588c-0.58823,0 -1.17645,0 -0.58823,0c1.17648,0 2.36615,0.37262 4.11765,0.58824c2.40717,0.29634 3.52942,0.58823 5.88235,0.58823c1.76471,0 4.11765,0.58823 5.29413,0.58823c0.58823,0 1.07278,0.28603 2.35294,0.58824c1.7175,0.40544 3.52939,0 4.70587,0c0.58823,0 1.17648,0 1.76471,0c1.17648,0 2.35294,0 2.94116,0c1.17648,0 1.34875,0.17229 1.76471,0.58824c0.83191,0.8319 1.76471,0 2.94119,0c0.58823,0 1.81085,-0.12362 3.52942,0.58823c1.21518,0.50335 2.35294,0.58824 3.52939,0.58824c1.76471,0 3.52942,-0.00001 4.7059,0.58824c1.17645,0.58823 2.35294,0.58823 2.94116,0.58823c1.17648,0 1.79617,0.31793 2.94119,0.58824c1.28012,0.3022 2.35294,0.58824 3.52939,0.58824c1.76471,0 3.57556,-0.12362 5.29413,0.58823c1.21521,0.50336 1.78046,0.45309 2.35294,0.58824c1.28015,0.3022 2.24927,0.87427 3.52942,1.17647c0.57248,0.13515 2.31421,0.67311 3.52942,1.17647c1.71857,0.71185 3.12354,0.19852 4.70587,1.17647c0.70764,0.43735 2.37817,1.00601 2.94116,1.17647c2.02991,0.61461 3.63885,1.58384 4.7059,2.35294c0.67487,0.48641 2.52521,1.34876 2.94116,1.76471c0.83191,0.8319 1.80948,0.36314 2.35294,0.58824c0.76859,0.31835 1.59146,1.38011 2.94119,2.35294c1.06705,0.76908 2.31421,1.84958 3.52942,2.35294c1.71857,0.71185 3.63879,1.58384 4.70587,2.35294c0.67487,0.48641 2.35294,1.76471 4.11765,2.35294c1.76471,0.58823 3.56088,1.49442 4.70587,1.76471c1.28015,0.3022 1.76471,1.17646 2.94119,1.76471c1.17645,0.58823 2.96396,0.8938 4.70587,1.17647c1.83615,0.29797 4.12204,1.1046 4.7059,1.17647c2.40717,0.29634 3.56085,0.90616 4.70587,1.17647c1.28012,0.3022 1.76471,1.17647 2.35294,1.17647c0.58823,0 1.84042,0.66509 3.52942,1.17647c2.02991,0.6146 3.05057,1.58384 4.11765,2.35294c0.67487,0.48641 1.76471,1.17647 2.35294,1.17647c1.17648,0 1.78046,1.04132 2.35294,1.17647c1.28015,0.3022 1.87415,0.99561 2.94119,1.76471c0.67487,0.48641 1.26602,0.72625 2.35294,1.17647c0.76855,0.31835 1.08981,0.69005 1.76471,1.17647c1.06705,0.76907 2.4408,0.86722 2.94116,1.17647c1.1189,0.69151 1.72598,1.84958 2.94119,2.35294c1.71857,0.71185 3.03073,1.31448 4.11765,1.76471c0.76855,0.31835 0.7605,0.76052 1.17645,1.17647c0.41595,0.41596 1.07281,1.46251 2.35294,1.76471c0.57251,0.13515 1.08984,0.69006 1.76471,1.17647c1.06708,0.7691 2.17209,1.28588 2.94119,2.35294c0.48642,0.67486 1.66141,0.05757 2.35294,1.17647c0.30927,0.50038 1.17648,1.17647 1.76471,1.76471c1.17645,1.17647 1.76471,1.7647 2.35294,2.35294c0.58823,0.58824 1.28589,0.99562 2.35294,1.76471c0.67487,0.48641 0.58823,1.17646 1.17648,1.7647c1.17648,1.17646 2.24966,1.23406 2.94116,2.35294c0.30927,0.50038 0.50162,1.86653 1.17648,2.35294c1.06705,0.76909 1.90274,1.26602 2.35294,2.35294c0.31836,0.76857 1.52106,0.93283 2.35294,1.76471c0.41595,0.41595 0.58823,1.17646 1.76471,2.35294c0.58823,0.58823 1.27829,1.08984 1.76471,1.7647c0.76907,1.06706 1.17648,1.76471 2.35294,2.94118c0.58823,0.58823 0.83463,2.0111 1.76471,2.94118c0.93008,0.93009 1.96832,1.59146 2.94116,2.94118c0.7691,1.06705 1.47827,1.52587 2.35297,2.94118c0.97794,1.58234 1.86652,2.85453 2.35294,3.52941c0.7691,1.06705 1.86652,2.2663 2.35294,2.94117c0.76907,1.06706 1.42285,2.0111 2.35294,2.94118c0.93008,0.93009 1.58383,1.87413 2.35294,2.94118c0.48642,0.67487 1.28845,1.10677 2.35297,2.94118c0.66016,1.13763 0.99561,1.87411 1.76471,2.94118c0.48639,0.67484 2.24963,1.8223 2.94116,2.94118c0.61853,1.00076 0.58826,1.76468 1.76471,2.94117c0.5882,0.58823 0.99561,1.87411 1.76471,2.94118c0.97284,1.34972 1.76471,2.94119 2.35291,3.52942c1.17645,1.1765 1.76477,2.35291 2.94122,3.5294c0.5882,0.58823 1.42285,1.42288 2.35291,2.35295c0.93011,0.93008 0.99561,1.87411 1.76471,2.94118c0.48645,0.67487 0.64581,1.66142 1.76471,2.35294c0.50043,0.30927 1.27826,1.08983 1.76471,1.76471c0.7691,1.06705 1.2373,2.29782 1.76471,2.94118c1.3446,1.64017 2.35297,2.94119 2.94116,4.70587c0.58826,1.76472 1.64111,2.9873 2.35297,4.70589c0.50336,1.21519 1.38007,2.17969 2.35291,3.5294c0.7691,1.06706 1.17651,1.76472 1.76471,2.35295c1.17645,1.1765 1.53961,2.39772 1.76471,2.94118c0.31836,0.76857 1.53961,1.80949 1.76471,2.35294c0.31836,0.76859 1.08984,1.86652 1.76471,2.35294c1.06708,0.76907 0.99561,1.2859 1.76471,2.35295c0.48645,0.67487 1.27826,1.67807 1.76471,2.35294c0.7691,1.06705 1.49438,1.79619 1.76471,2.94118c0.30219,1.28015 0.99561,1.87413 1.76471,2.94118c0.48645,0.67488 1.44635,1.58437 1.76471,2.35294c0.2251,0.54346 0.31787,1.20796 0.5882,2.35295c0.30219,1.28015 0.9881,2.36812 1.17651,3.5294c0.29797,1.83614 0.5882,3.52942 1.17645,4.70589c0.58826,1.17647 1.44635,3.34906 1.76471,4.11765c0.2251,0.54346 0.36316,1.80948 0.58826,2.35294c0.3183,0.76855 1.17645,1.17647 1.17645,2.35295c0,0.58823 0.31799,1.20793 0.58826,2.35294c0.30219,1.28014 1.84955,2.90245 2.35291,4.11765c0.71185,1.71858 1.46252,2.83749 1.76471,4.11765c0.27032,1.14499 0.7262,2.4425 1.17645,3.52942c0.31836,0.76857 0.85815,2.17259 1.17651,2.94118c0.2251,0.54344 0.87427,1.66101 1.17645,2.94118c0.27032,1.14499 0.87848,2.28151 1.17645,4.11765c0.18842,1.16129 0.06818,2.91991 0.58826,4.70587c0.6781,2.32864 0.98798,5.30933 1.17645,6.4706c0.29797,1.83615 0.79956,4.14803 1.17645,6.47058c0.29797,1.83615 0.87854,2.86974 1.17651,4.70589c0.28265,1.74193 0.87848,2.86974 1.17645,4.70587c0.18848,1.16129 0.29266,2.89755 0.58826,5.88235c0.05798,0.58539 0.04761,1.82767 0.5882,4.11765c0.30219,1.28015 1.17651,1.76471 1.17651,2.35294c0,1.76471 0.87427,3.42575 1.17645,4.7059c0.13513,0.57248 0.08789,0.86719 0.58826,1.17645c1.1189,0.69153 0.7605,1.93701 1.17645,2.35297c0.41595,0.41592 0,1.17645 0,2.35294c0,1.17645 0,1.76471 0,2.94116c0,1.76471 0,3.52942 0,4.11765c0,0.58826 0,1.76471 0,2.35294c0,0.58826 -0.58826,0.58826 -1.17645,0.58826c-0.58826,0 -1.17651,0 -1.76471,0c-0.58826,0 -0.76056,0.1723 -1.17651,0.58823c-0.41589,0.41592 -1.17645,0 -1.76471,0c-0.5882,0 -0.99615,0.2699 -1.76471,0.58823c-2.17383,0.90039 -3.52936,0 -4.70587,0c-0.5882,0 -1.17645,0 -1.76471,0c-0.5882,0 -1.76471,0.58826 -2.35291,0.58826c-0.58826,0 -1.17645,0 -1.76471,0c-1.17645,0 -1.78748,-0.28268 -3.52942,0c-1.83612,0.29797 -2.94116,0.58823 -3.52942,0.58823c-0.58826,0 -1.76471,0 -2.35291,0c-1.17651,0 -2.94122,0 -4.11768,0c-1.17645,0 -1.76471,0 -2.94116,0c-0.58826,0 -1.17651,0 -2.35297,0c-0.5882,0 -1.76471,0 -2.35291,0c-0.58826,0 -1.17651,0 -2.35297,0c-1.76471,0 -2.94116,0.58823 -4.70587,0.58823c-1.76471,0 -2.35297,0 -3.52942,0c-0.58826,0 -1.76471,0 -2.35297,0c-0.5882,0 -1.17645,0 -2.35291,0c-0.58826,0 -1.76471,0 -2.35297,0c-0.5882,0 -2.35291,0 -2.94116,0c-1.76471,0 -2.94116,0 -3.52942,0c-1.17645,0 -2.94116,0 -3.52942,0c-1.17645,0 -2.35291,0 -4.11761,0c-0.58826,0 -1.76471,0 -3.52942,0c-1.76471,0 -2.94119,0 -4.11765,0c-1.17648,0 -2.94119,0 -3.52942,0c-0.58826,0 -2.94119,0 -3.52942,0c-1.17648,0 -2.94116,0 -4.70587,0c-1.76471,0 -2.35294,0 -2.94119,0c-1.17645,0 -2.35294,0 -4.11765,0c-1.17645,0 -4.11765,0 -4.70587,0c-1.76471,0 -3.52942,0 -4.11765,0c-1.17648,0 -3.53381,0.07187 -4.11765,0c-2.40717,-0.29633 -4.11765,-0.58823 -5.29413,-0.58823c-0.58823,0 -4.11765,0 -4.70587,0c-2.35294,0 -4.7059,-0.58823 -5.88235,-0.58823c-2.94119,0 -5.29413,0 -6.47058,0c-2.35297,0 -5.88235,0 -7.05884,0c-1.76471,0 -4.70587,-0.58826 -5.29413,-0.58826c-2.94116,0 -5.2941,0 -5.88232,0c-1.76471,0 -4.7211,0.18845 -5.88235,0c-1.83615,-0.29797 -5.29413,-0.58823 -6.47061,-0.58823c-3.52939,0 -6.47058,0 -7.05881,0c-1.76471,0 -5.29559,-0.04169 -5.88235,0c-4.14899,0.29486 -6.95514,0.87427 -8.23529,1.17648c-2.86252,0.67578 -5.29413,0.58823 -5.88235,0.58823c-1.76471,0 -3.52942,0 -4.70587,0c-1.76471,0 -4.11768,0 -4.7059,0c-1.76471,0 -2.94116,0 -3.52942,0c-1.76468,0 -3.52939,0.58823 -4.11765,0.58823c-1.17645,0 -2.94116,0 -3.52939,0c-2.35297,0 -3.52942,0 -6.47061,0c-4.11765,0 -6.47058,0 -7.05881,0c-4.11765,0 -7.64706,0 -8.82355,0c-2.35294,0 -6.41342,-0.1319 -7.64703,-0.58823c-2.27469,-0.84146 -5.29413,-0.58823 -6.47061,-0.58823c-2.94116,0 -5.27283,-0.06818 -7.05881,-0.58826c-2.32861,-0.6781 -4.11765,-1.17645 -5.88235,-1.17645c-1.17648,0 -2.94116,0 -4.11765,0c-1.17648,0 -1.76471,-0.58826 -2.94119,-0.58826c-0.58823,0 -2.36868,0.13513 -2.94116,0c-1.28015,-0.30219 -1.66104,-0.30219 -2.94116,0c-0.57251,0.13516 -2.94119,0 -4.11765,0c-0.58826,0 -1.46838,-1.12222 -1.76471,-3.52939c-0.07187,-0.58386 -0.58826,-5.29413 -0.58826,-7.05884c0,-1.17645 0,-2.35294 0,-4.11765c0,-0.58823 0,-2.94116 0,-4.11765c0,-1.17648 0,-2.35294 0,-3.52942c0,-2.35294 0,-4.11765 0,-5.88235c0,-1.17645 0,-2.35294 0,-3.52939c0,-2.94119 0,-4.11766 0,-5.29413c0,-1.17647 0,-1.76471 0,-2.35294c0,-0.58824 0,-1.17648 0,-2.94118c0,-1.17647 0,-3.52942 0,-5.29413c0,-1.76469 0.58826,-4.11765 0.58826,-5.88234c0,-2.35295 -0.21561,-4.7191 0,-6.4706c0.29633,-2.40718 0.15698,-4.14409 0.58823,-7.64706c0.29633,-2.40718 0.58823,-4.70587 0.58823,-6.47058c0,-1.17647 0,-2.35294 0,-4.11765c0,-2.94118 0,-4.11765 0,-6.4706c0,-1.76469 0,-3.5294 0,-5.88234c0,-1.76471 0,-2.94118 0,-5.88235c0,-1.76471 0,-3.52942 0,-4.11765c0,-1.76471 0,-2.94118 0,-4.11765c0,-1.76471 -0.58823,-3.52942 -0.58823,-5.29413c0,-1.76469 0,-3.5294 0,-4.70587c0,-2.35295 -0.2919,-4.0634 -0.58823,-6.4706c-0.35934,-2.91914 0,-4.11765 0,-6.47058c0,-1.17647 0,-3.52942 0,-5.88235c0,-2.94118 0,-4.70589 0,-7.64706c0,-1.17647 0.58823,-4.11765 0.58823,-6.47058c0,-2.35295 0.29025,-5.22267 0.58823,-7.05882c0.37689,-2.32257 0.12201,-5.26694 0.58826,-7.64706c0.79959,-4.08187 0.58823,-6.47059 0.58823,-10c0,-1.7647 0,-4.70588 0,-7.64706c0,-3.52941 0.2919,-6.41634 0.58823,-8.82352c0.28748,-2.33531 -0.43121,-5.32056 0,-8.82353c0.29633,-2.40719 1.17648,-4.70588 1.17648,-7.64706c0,-2.35294 -0.43121,-4.14409 0,-7.64706c0.29633,-2.40719 0.88013,-4.06341 1.17645,-6.47059c0.21561,-1.75149 0.58826,-4.70589 0.58826,-6.47059c0,-2.94118 0,-5.29412 0,-8.82353c0,-1.76471 0,-3.52941 0,-5.88235c0,-2.35294 0,-4.70588 0,-7.64706c0,-1.17647 0,-3.52941 0,-4.11765c0,-1.76471 -0.28604,-3.42573 -0.58826,-4.70588c-0.27029,-1.145 0.14374,-3.53823 0,-4.70588c-0.29633,-2.40718 -0.87427,-4.01397 -1.17645,-5.29412c-0.13516,-0.5725 0.2251,-1.22125 0,-1.76471c-0.31836,-0.76858 0.004,-0.68527 1.17645,-0.58824c3.56592,0.29512 5.29413,0.58824 5.88235,0.58824c2.35294,0 2.94119,0 4.11765,0c1.17648,0 1.93698,0.17229 2.35294,0.58823c0.83191,0.8319 2.36816,-0.18845 3.52942,0c1.83615,0.29797 2.97266,0.31795 4.11765,0.58824c1.28015,0.3022 2.97266,0.31795 4.11765,0.58824c1.28015,0.3022 2.35294,0.58824 4.11765,0.58824c0.58826,0 2.83752,0.28603 4.11765,0.58823c2.86252,0.67575 4.11765,0.58824 5.88235,0.58824c1.17648,0 3.55222,-0.28267 5.29413,0c1.83615,0.29797 3.61896,0.72627 4.70587,1.17647c0.76859,0.31835 2.24927,0.87427 3.52942,1.17647c1.14502,0.2703 1.67807,0.69006 2.35294,1.17647c1.06705,0.7691 2.53528,0.19854 4.11765,1.17647c0.70767,0.43735 1.10678,0.70016 2.94119,1.76471c1.13763,0.6602 1.67807,0.69006 2.35294,1.17647c1.06705,0.7691 2.83789,0.64581 3.52942,1.76471c0.30927,0.50038 1.58438,1.44635 2.35294,1.76471c0.54346,0.22511 1.67807,0.69006 2.35294,1.17647c1.06705,0.7691 1.67807,0.69006 2.35294,1.17647c1.06708,0.7691 1.87415,0.99561 2.94119,1.76471c0.67487,0.48641 1.78046,1.04132 2.35294,1.17647c1.28012,0.3022 2.67596,1.73833 4.70587,2.35294c0.56299,0.17046 1.66104,0.87427 2.94119,1.17647c0.57248,0.13515 1.28586,0.40737 2.35294,1.17647c0.67487,0.48641 1.26602,0.13801 2.35294,0.58823c0.76855,0.31835 1.79617,0.90618 2.94116,1.17647c1.28015,0.3022 1.58438,0.85812 2.35297,1.17647c0.54346,0.2251 1.67807,0.69005 2.35294,1.17647c1.06705,0.76907 3.34909,0.85812 4.11765,1.17647c1.63037,0.67533 2.94116,1.17647 4.70587,1.17647c1.76471,0 2.94119,1.17647 4.11765,1.17647c1.17648,0 4.16379,1.05285 5.88235,1.76471c1.21521,0.50336 1.76471,0.58823 2.94119,1.17647c1.17645,0.58823 1.85425,0.72626 2.94116,1.17647c0.76855,0.31835 1.66104,1.4625 2.94119,1.76471c0.57248,0.13515 1.76468,0.58823 2.94116,1.17647c1.17648,0.58824 1.87411,0.99563 2.94116,1.76471c0.6749,0.48642 1.40405,1.71624 2.94119,2.35294c0.54346,0.22511 1.76471,0.58824 2.94116,1.17647c1.17648,0.58824 1.22125,0.95137 1.76471,1.17648c1.53714,0.6367 1.66104,2.05074 2.94119,2.35294c0.57248,0.13515 1.26602,0.72625 2.35294,1.17648c0.76855,0.31835 1.0032,1.38011 2.35294,2.35294c1.06708,0.7691 1.52106,1.52106 2.35294,2.35294c0.41595,0.41596 1.86652,0.50161 2.35294,1.17647c0.7691,1.06706 2.18765,3.12366 4.11765,4.70589c1.6402,1.34464 2.46237,1.58386 3.52942,2.35294c0.6749,0.48643 1.17648,1.76472 2.35294,2.94118c1.17648,1.17648 2.24966,1.23405 2.94119,2.35294c0.30927,0.50038 0.58823,1.76471 1.17645,2.35294c1.17648,1.17648 2.28101,1.80353 2.94119,2.94118c1.06454,1.8344 1.87411,2.1721 2.94116,2.94117c0.6749,0.48643 1.87665,2.28324 2.94119,4.11765c0.66019,1.13764 1.58386,2.46235 2.35294,3.52941c0.48642,0.67487 2.03458,1.58437 2.35294,2.35294c0.45023,1.08692 0.83463,2.59933 1.76471,3.52941c0.93008,0.93009 2.12784,2.39772 2.35294,2.94118c0.31836,0.76858 1.76471,1.7647 2.94119,3.52941c1.17645,1.7647 2.1239,3.62311 2.94116,5.29412c0.93182,1.90525 3.77582,4.36402 4.7059,5.29411c0.93008,0.93008 1.27826,1.67809 1.76468,2.35294c0.7691,1.06706 1.17648,1.76472 1.76471,2.35295c0.58826,0.58824 1.46252,1.0728 1.76471,2.35294c0.13513,0.57251 0.99561,1.28589 1.76471,2.35295c0.48645,0.67487 1.2373,1.70958 1.76471,2.35294c1.3446,1.64018 1.76471,2.94116 2.35297,4.11765c0.5882,1.17645 1.76465,2.94118 2.35291,4.11765c0.58826,1.17647 0.99561,1.87413 1.76471,2.94118c0.48645,0.67488 1.17645,0.58824 1.76471,1.76471c0.58826,1.17647 0.81476,2.57175 2.35297,4.70587c0.97284,1.34973 1.34875,1.34877 1.76471,1.76471c0.41589,0.41592 1.17645,1.17648 1.76465,2.35295c1.17645,2.35297 2.35297,4.11766 3.52942,5.29411c0.58826,0.58824 0.69006,1.08983 1.17651,1.76471c0.76904,1.06705 1.38007,2.17969 2.35291,3.5294c0.7691,1.06706 0.99561,2.46237 1.76471,3.52942c0.48639,0.67487 0.95135,1.22125 1.17645,1.76469c0.63672,1.53717 1.58386,2.46237 2.35297,3.52942c0.48645,0.67487 0.72626,1.26602 1.17645,2.35294c0.63672,1.53716 1.375,3.12354 2.35297,4.70589c0.43738,0.70766 1.76471,1.76469 2.35297,2.94118c0.5882,1.17645 1.64105,2.98732 2.35291,4.70589c1.00671,2.4304 2.94116,4.70586 4.11768,6.47058c1.17645,1.76469 2.65472,3.29056 3.52942,4.70589c0.97791,1.58234 1.3949,3.38042 2.94116,5.88235c0.69147,1.11888 1.37494,3.71178 2.35291,5.29411c0.87469,1.41531 1.76471,2.94118 2.35297,4.70587c0.58826,1.76471 1.32733,3.41 1.76471,4.11766c0.97797,1.58234 0.58826,2.94119 1.17645,4.70587c0.58826,1.76472 1.54907,2.95441 1.76471,4.70589c0.29633,2.40718 0.70532,4.15562 1.17645,7.05882c0.29797,1.83615 0.87854,4.0462 1.17651,5.88235c0.37689,2.32256 -0.28265,2.96396 0,4.70589c0.29797,1.83612 1.17645,4.11763 1.17645,5.29411c0,1.76471 0.58826,2.94116 0.58826,4.11765c0,1.76471 0,2.35294 0,2.94116c0,0.58826 0,1.17648 0,2.35297c0,1.17645 -0.13513,2.36868 0,2.94116c0.30219,1.28015 0.3631,1.80948 0.5882,2.35294c0.31836,0.76859 0.45313,1.19223 0.58826,1.76471c0.30219,1.28015 0.88013,2.29871 1.17645,4.70587c0.0719,0.58386 0,1.17648 -0.5882,1.17648c-0.58826,0 -1.17651,0 -1.76471,0c-0.58826,0 -0.73871,0.35342 -1.76471,1.17648c-1.89191,1.51764 -4.75305,1.35928 -6.47058,1.76471c-1.28021,0.30219 -1.66101,0.87427 -2.94122,1.17645c-1.14496,0.27029 -2.17261,0.2699 -2.94116,0.58823c-0.54346,0.2251 -1.76471,0 -2.35291,0c-1.17651,0 -1.76471,0 -2.35297,0c-0.58826,0 -2.35297,0 -4.11768,0c-1.17645,0 -1.76471,0 -2.94116,0c-1.17645,0 -2.35291,0 -3.52942,0c-2.35291,0 -4.70587,0 -6.47058,0c-2.35291,0 -3.52942,0 -4.70587,0c-1.76471,0 -4.11768,0.58826 -5.88232,0.58826c-2.35297,0 -3.52942,0.58823 -5.29413,0.58823c-1.76471,0 -3.52942,0 -5.29413,0c-1.76471,0 -3.52942,0 -5.29413,0c-1.17645,0 -1.76471,0 -2.94116,0c-0.58826,0 -2.35294,0.58823 -3.52942,0.58823c-1.17648,0 -2.94119,0 -4.70587,0c-2.94119,0 -4.11765,0 -5.88235,0c-1.17648,0 -1.76471,0 -2.94119,0c-1.76471,0 -2.94116,0 -4.70587,0c-1.17648,0 -2.3844,0.27029 -3.52942,0c-1.28012,-0.30219 -3.47519,-0.88013 -5.88235,-1.17645c-2.3353,-0.28748 -4.6846,-0.6564 -6.47058,-1.17648c-2.32864,-0.6781 -4.14197,-0.49835 -6.47058,-1.17645c-1.78598,-0.52008 -4.64874,-0.72015 -5.88235,-1.17648c-2.27469,-0.84146 -4.11765,-1.17648 -5.88235,-1.17648c-1.17648,0 -2.35294,0 -2.94119,0c-0.58823,0 -2.35294,0 -3.52939,0c-1.17648,0 -2.94119,0 -4.11765,0c-1.17648,0 -2.35297,0 -4.11765,0c-2.35297,0 -4.11765,0 -6.47061,0c-1.17645,0 -3.52939,0 -5.2941,0c-1.76471,0 -3.52942,0 -5.29413,0c-3.52942,0 -5.88235,0 -7.64706,0c-1.76471,0 -4.11765,0 -6.47058,0c-1.76471,0 -4.70587,0 -7.05881,0c-2.35297,0 -4.7059,0 -5.88235,0c-1.76471,0 -3.45798,0.29028 -5.29413,0.58826c-2.32254,0.37692 -5.29413,0 -7.64706,0c-2.35294,0 -4.11765,0 -5.88235,0c-1.17645,0 -2.94116,0 -4.11765,0c-0.58823,0 -1.76471,0 -3.52942,0c-0.58823,0 -2.94116,0 -4.11765,0c-0.58823,0 -1.76471,0 -2.94116,0c-1.76471,0 -2.35294,0 -3.52942,0c-0.58823,0 -1.76471,0 -2.35294,0c-0.58823,0 -1.76471,0 -2.94119,0c-1.76468,0 -2.35294,0 -4.11765,0c-1.17645,0 -1.76468,0 -2.35294,0c-0.58823,0 -1.76471,0 -3.52939,0c-1.17648,0 -2.94119,0 -4.11768,0c-1.76468,0 -2.94116,0 -3.52939,0c-0.58826,0 -1.34875,-0.1723 -1.76471,-0.58826c-0.83191,-0.83191 -2.86975,-0.87848 -4.7059,-1.17645c-1.74188,-0.28265 -2.98837,-0.1828 -4.70587,-0.58826c-1.28012,-0.30219 -2.24927,-0.87427 -3.52942,-1.17645c-0.57248,-0.13513 -1.17645,0 -1.76471,0c-0.58823,0 -1.17645,-0.58823 -1.76468,-0.58823c-0.58826,0 -0.49405,-0.59586 -0.58826,-1.17648c-0.29797,-1.83615 -1.17645,-3.52942 -1.17645,-4.11765c0,-1.76471 -0.28604,-2.24927 -0.58826,-3.52942c-0.13516,-0.57248 0,-1.76471 0,-3.52942c0,-1.17645 -0.28604,-3.42572 -0.58823,-4.70587c-0.13513,-0.57248 0,-1.76471 0,-2.94116c0,-2.94119 0,-6.4706 0,-8.23531c0,-1.76471 -0.58823,-4.11765 -0.58823,-5.88235c0,-2.35294 0,-4.11765 0,-7.05882c0,-2.35294 0,-5.29411 0,-7.05882c0,-1.76471 0,-2.94118 0,-5.29411c0,-1.76471 0,-4.11765 0,-5.29411c0,-2.35295 0.87848,-4.04622 1.17645,-5.88235c0.37689,-2.32257 0,-4.11765 0,-7.05882c0,-2.35295 0.30557,-4.14043 0.58826,-5.88235c0.29797,-1.83615 0.04764,-3.00412 0.58823,-5.29411c0.6044,-2.5603 0.98242,-5.89037 1.17648,-8.23531c0.2951,-3.56589 1.17645,-4.70587 1.17645,-7.05882c0,-1.17647 0,-3.5294 0,-6.47058c0,-2.35294 0,-4.11765 0,-5.88235c0,-1.76471 0,-4.70589 0,-5.88235c0,-2.35294 0,-4.70589 0,-7.05882c0,-2.35294 0,-5.29411 0,-6.47058c0,-2.35295 0,-4.70589 0,-8.23531c0,-3.5294 0,-5.88234 0,-8.23529c0,-2.94118 0,-4.11765 0,-7.05882c0,-2.35294 0,-4.11765 0,-7.05882c0,-2.94117 0,-5.29411 0,-7.05882c0,-2.94118 0,-5.88235 0,-7.64706c0,-2.35294 0,-4.70588 0,-6.47059c0,-2.35294 0,-5.29411 0,-7.05882c0,-0.58823 0,-4.11765 0,-5.88235c0,-1.17647 0.58823,-5.29411 0.58823,-7.64706c0,-1.7647 0.88138,-5.25762 1.17648,-8.82352c0.14554,-1.7587 0.58823,-3.52942 0.58823,-5.29412c0,-2.94118 0.40665,-5.92458 1.17648,-8.82353c0.47745,-1.79785 0.30554,-4.72867 0.58823,-6.47059c0.29797,-1.83615 0.1828,-2.98838 0.58826,-4.70588c0.30219,-1.28014 0.58823,-2.35294 0.58823,-3.52941c0,-1.17647 0,-1.76471 0,-3.52941c0,-1.17647 0,-2.35294 0,-2.94118c0,-0.58824 0,-1.17647 1.76471,-1.17647c1.17645,0 4.10245,0.08183 7.05881,0.58823c4.09973,0.70226 5.29413,0.58824 7.05884,0.58824c1.17645,0 1.76471,0 2.94116,0c2.94119,0 5.34134,0.18279 7.05884,0.58824c1.28012,0.3022 2.94116,1.17647 4.11765,1.17647c1.76471,0 4.0462,0.29027 5.88235,0.58823c2.9032,0.47112 3.87396,-0.24366 4.70587,0.58823c0.41595,0.41595 0.66647,0.33499 2.94119,1.17647c1.23361,0.45634 2.33167,1.83286 4.11765,2.35294c2.32864,0.6781 5.1192,2.67139 7.05881,3.52941c2.21802,0.98119 4.06049,1.89659 5.29413,2.35294c2.27469,0.84146 4.30502,0.7184 7.64706,2.35294c1.90521,0.93182 4.11765,1.76471 5.2941,2.35294c1.17648,0.58824 1.70755,1.30835 2.94119,1.76471c2.27469,0.84146 4.41428,1.19735 7.05881,2.94117c0.69449,0.45795 2.94119,1.76471 4.70587,3.52941c1.76471,1.76471 3.52942,3.52942 5.88235,4.70588c2.35297,1.17648 2.99875,2.24966 4.11765,2.94118c1.00076,0.61852 1.79617,0.31794 2.94119,0.58823c1.28015,0.3022 2.08774,1.1501 4.11765,1.76471c1.689,0.51138 2.36868,0.45309 2.94116,0.58823c1.28015,0.3022 1.66104,1.4625 2.94119,1.7647c1.14502,0.27029 2.80063,2.00935 4.70587,2.94118c1.67102,0.81726 3.12357,0.78675 4.7059,1.76471c1.41528,0.8747 3.15997,1.40301 5.2941,2.94118c1.34973,0.97283 1.99228,1.71624 3.52942,2.35294c0.54346,0.22511 1.87411,0.4074 2.94116,1.17648c0.67487,0.48642 1.17648,0.58823 2.35297,1.17647c1.17645,0.58823 3.6539,2.18479 5.2941,3.52941c0.64334,0.52741 2.17969,1.38011 3.52942,2.35294c1.06708,0.76909 2.48395,1.01412 4.70587,2.94117c0.62848,0.54507 1.76471,1.17647 2.35297,1.76471c0.58823,0.58823 1.35114,2.12579 2.94116,3.52941c0.98608,0.87049 1.65945,2.52865 3.52942,3.52941c0.51862,0.27756 1.27759,2.02315 1.76471,2.35294c2.62311,1.77593 2.55655,4.53263 3.52939,5.88235c0.7691,1.06706 0.90292,1.35928 1.76471,2.35294c1.21878,1.40527 1.17645,3.52943 2.35294,4.70589c0.58826,0.58824 1.26434,0.86723 1.76471,1.17647c1.1189,0.69151 1.17648,2.35294 2.35297,4.11765c1.17645,1.7647 1.58383,2.46236 2.35294,3.52941c0.97284,1.34972 2.35294,2.35295 3.52939,4.11765c1.17648,1.76471 2.4649,3.45972 3.52942,5.29411c0.66019,1.13765 1.08704,2.98807 2.35294,5.29413c1.65051,3.00674 3.64136,5.22441 4.7059,7.05882c1.3204,2.27528 2.45474,3.44278 2.94116,4.11765c0.7691,1.06706 1.375,3.12352 2.35297,4.70589c0.43732,0.70763 1.32733,1.05704 1.76471,1.76469c0.97797,1.58234 1.87665,3.45972 2.94116,5.29413c0.66016,1.13763 1.86652,2.85455 2.35291,3.5294c0.7691,1.06706 1.96838,2.17966 2.94122,3.52942c0.76904,1.06705 1.17645,1.76468 1.76471,2.35294c0.5882,0.58823 1.76471,2.94119 2.35291,3.5294c0.58826,0.58826 0.67609,0.86725 1.17645,1.17648c1.1189,0.69151 0.99615,3.84773 1.76471,3.5294c0.54346,-0.2251 -0.1803,-2.08307 0.58826,-1.76471c0.54346,0.22511 0.21136,0.61862 0.58826,2.94118c0.29797,1.83614 1.17645,2.35294 1.76471,3.52942c0.5882,1.17645 1.31451,2.44247 1.76471,3.5294c0.3183,0.76855 1.17645,1.17647 1.76471,1.76471c0.5882,0.58823 0.72626,1.26602 1.17645,2.35294c0.63672,1.53714 1.37494,2.53532 2.35291,4.11766c0.87469,1.41531 0.76056,1.93698 1.17651,2.35294c0.41589,0.41592 0.85809,0.40788 1.17645,1.17647c0.2251,0.54346 1.35889,2.18765 2.94116,4.11765c1.34467,1.6402 1.87659,2.87151 2.94116,4.70589c0.66022,1.13765 1.23407,3.42613 2.35297,4.11765c0.50043,0.30927 1.04132,0.60397 1.17645,1.17647c0.30219,1.28015 1.76471,1.76471 2.35297,2.94118c0.58826,1.17647 1.27826,1.67807 1.76471,2.35294c0.7691,1.06706 1.76471,2.94119 2.35291,4.11765c0.58826,1.1765 1.46252,1.66104 1.76471,2.94118c0.27026,1.14502 0.9881,2.36813 1.17651,3.52942c0.29797,1.83614 0.90613,4.73737 1.17645,5.88235c0.30219,1.28015 0.58826,2.94118 0.58826,4.11765c0,2.35294 0,3.5294 0,5.88235c0,1.76471 0,2.94118 0,4.11765c0,2.35294 0,4.11765 0,5.88235c0,1.17647 0,1.76471 0,4.11765c0,1.76471 0,4.11765 0,5.88235c0,1.17645 -0.4054,2.98837 0,4.70587c0.30219,1.28015 -0.01855,3.18359 1.17645,5.29413c0.40991,0.72391 0.41595,2.18066 0,1.76471c-0.41595,-0.41595 -0.604,-0.72339 -1.17645,-0.58826c-1.28021,0.30222 -2.92792,1.2326 -5.29413,1.76471c-2.92633,0.65805 -5.29413,0.58826 -7.05884,0.58826c-1.76471,0 -2.94116,0.58823 -4.11761,0.58823c-2.35297,0 -3.52942,0 -5.29413,0c-0.58826,0 -1.76471,0 -2.94122,0c-1.17645,0 -2.94116,0.58823 -5.88232,0.58823c-3.52942,0 -7.05884,0 -10,0c-2.94116,0 -4.16382,0.1236 -5.88232,-0.58823c-2.43042,-1.00674 -5.29413,-1.17648 -8.82355,-1.76471c-3.52942,-0.58823 -7.05884,-1.17648 -8.23529,-1.17648c-1.17648,0 -2.35297,0 -3.52942,0c-1.17648,0 -2.94119,0 -4.11765,0c-0.58823,0 -1.76471,0 -2.94119,0c-1.76471,0 -2.94116,0 -5.2941,0c-2.94119,0 -4.7059,0 -6.47061,0c-1.76468,0 -3.52939,0 -4.70587,0c-2.35294,0 -4.70587,0 -5.88235,0c-2.35294,0 -3.52942,0 -4.11765,0c-3.52942,0 -5.2941,0 -8.23529,0c-2.35294,0 -4.63443,-0.29025 -6.47058,-0.58823c-2.90323,-0.47113 -4.7059,-0.58823 -7.05884,-0.58823c-2.35294,0 -4.70587,0 -7.05881,0c-1.17648,0 -3.53824,-0.44449 -4.7059,-0.58823c-2.4072,-0.29636 -4.66223,-0.88092 -7.64703,-1.17648c-2.34152,-0.23184 -5.3027,-0.41434 -7.05884,-0.58823c-2.9848,-0.29556 -4.11765,-0.58826 -6.47058,-0.58826c-1.76471,0 -3.52942,0 -5.29413,0c-1.76471,0 -3.52939,0 -5.2941,0c-2.35297,0 -5.30734,0.21561 -7.05884,0c-2.40717,-0.29633 -4.11765,-0.58823 -6.47058,-0.58823c-1.76471,0 -2.94119,0 -4.70587,0c-1.76471,0 -2.94119,0 -4.7059,0c-1.17645,0 -4.11765,0 -4.70587,0c-1.76471,0 -3.55222,0.28268 -5.29413,0c-1.83615,-0.29797 -2.38333,-0.2113 -4.70587,-0.58823c-1.83615,-0.29797 -5.29413,-0.58826 -8.23529,-0.58826c-2.94119,0 -5.82813,-0.88013 -8.23529,-1.17645c-2.91916,-0.35938 -5.92032,0.47113 -8.82355,0c-1.83615,-0.29797 -3.42572,-0.87427 -4.70587,-1.17648c-1.7175,-0.40546 -3.52942,-0.58823 -4.11765,-0.58823c-1.17648,0 -2.52524,0.41595 -2.94119,0c-0.41592,-0.41592 -0.58823,-0.58823 0,-0.58823c1.17648,0 4.7059,2.35294 7.64706,3.52939c2.94119,1.17648 4.7059,2.35297 5.29413,2.35297c0.58823,0 0.60397,0.45309 1.17645,0.58823c1.28015,0.30219 1.58438,0.85812 2.35297,1.17648c0.54346,0.2251 0.99612,0.2699 1.76471,0.58823c0.54346,0.2251 1.16071,0.45309 0.58823,0.58823c-1.28015,0.30219 -2.95288,1.01111 -10.58823,0.58823c-5.31854,-0.29456 -8.16562,-0.24945 -12.94119,-3.52939c-0.68573,-0.47098 -1.17648,-1.17648 -1.17648,-2.94119c0,-1.17645 0,-2.35294 0,-5.2941c0,-0.58826 -0.24365,-1.52106 0.58826,-2.35297c0.41592,-0.41592 1.15009,-0.91125 1.76471,-2.94116c0.17047,-0.56299 0.26987,-0.99615 0.58823,-1.76471c0.2251,-0.54346 0.58823,-3.5294 1.17648,-4.70589c1.76471,-3.52939 2.35294,-5.29411 2.94116,-6.47058c0.58823,-1.17647 1.12491,-3.54745 1.76471,-5.29411c1.08957,-2.97446 1.15799,-5.53651 2.35294,-7.64706c0.40985,-0.72391 0.58823,-2.94118 0.58823,-4.11765c0,-2.94118 0,-5.29411 0,-7.64706c0,-1.17647 0,-3.5294 0,-4.70587c0,-1.76471 0,-2.94118 0,-4.70589c0,-2.35294 -0.29025,-4.0462 -0.58823,-5.88235c-0.18845,-1.16127 0,-2.35294 0,-2.94118c0,-0.58823 -0.1723,-1.59241 -0.58823,-1.17647c-0.41595,0.41595 -0.62439,2.34793 -1.17648,6.47058c-0.62949,4.70055 -2.53439,12.27856 -2.94116,13.52942c-1.10651,3.40269 -1.17648,6.47058 -1.17648,8.23529c0,0.58824 0,3.52942 0,4.70589c0,0.58823 -0.58823,1.17647 -0.58823,2.35294c0,0.58824 0,1.76471 0,2.35294c0,0.58824 0,-0.58823 0,-1.76469c0,-1.17647 -0.28983,-4.7202 0,-7.64706c0.59109,-5.96965 1.70789,-12.36288 2.35294,-15.88235c0.54074,-2.95027 1.46252,-4.01398 1.76471,-5.29411c0.40546,-1.7175 0.49835,-3.55373 1.17645,-5.88235c0.52008,-1.786 0.50116,-4.25197 1.17648,-5.88235c0.31836,-0.76855 0.58823,-1.76469 0.58823,-2.35294c0,-2.35294 0,-2.94118 0,-3.52942c0,-0.58823 -0.77319,-0.7276 -1.17645,0c-3.80447,6.86423 -3.23474,12.3255 -3.52942,17.05882c-0.14621,2.3484 0.16266,5.29863 0,8.23531c-0.29456,5.31854 -0.88135,7.61055 -1.17648,11.17647c-0.09705,1.17245 -0.58823,4.70587 -0.58823,5.29411c0,2.35294 0,2.94118 0,4.70589c0,0.58823 0,1.17647 0,1.76469c0,0.58824 -0.1723,0.76054 -0.58823,1.17648c-0.41592,0.41594 -0.58823,0.58823 -0.58823,0c0,-4.11765 0.1001,-7.62404 2.35294,-17.64706c1.84695,-8.21724 2.35294,-11.76471 2.35294,-15.29411c0,-2.94118 0,-6.4706 0,-11.76471c0,-5.88235 0,-9.41176 0,-10c0,-0.58823 0.28604,-1.0728 0.58823,-2.35294c0.13516,-0.57251 0,-2.94118 0,-4.11765c0,-0.58824 0.58823,-1.17647 0.58823,-1.76471c0,-1.17647 0,-2.35294 0,-3.52942c0,-2.35294 0,-4.70587 0,-6.47058c0,-0.58824 0,-2.94118 0,-5.29411c0,-1.17647 -0.58823,-2.94118 -0.58823,-4.11765c0,-0.58824 0,-1.17648 0,-3.52942c0,-1.76471 0,-3.5294 0,-5.29411c0,-0.58824 0,-1.76471 0,-3.52942c0,-1.17647 -0.29312,-2.31645 -0.58823,-5.88235c-0.14554,-1.75868 0,-2.94116 0,-4.70587c0,-2.35295 0.7861,-3.10806 -0.58823,-7.64706c-0.38116,-1.2589 -1.16031,-2.73383 -1.76471,-5.29411c-0.27029,-1.145 -0.2934,-2.3216 -0.58826,-6.47059c-0.0834,-1.17351 0,-4.11765 0,-8.2353c0,-1.7647 -0.58823,-3.52941 -0.58823,-5.88235c0,-1.17648 0,-2.94118 0,-6.47059c0,-1.76471 0,-2.94118 0,-5.29412c0,-2.94118 0.04749,-3.52031 0.58823,-6.47059c0.64508,-3.51947 0.88138,-4.08115 1.17648,-7.64706c0.09705,-1.17246 0.29266,-2.3093 0.58823,-5.29411c0.17389,-1.75612 0.29269,-4.074 0.58826,-7.05883c0.28983,-2.92686 0,-3.52941 0,-5.29412c0,-1.76471 0,-2.94118 0,-5.29412c0,-0.58823 0,-1.76471 0,-3.52941c0,-2.35294 0,-3.52941 0,-5.29412c0,-0.58824 0,-1.17647 0,-1.76471c0,-0.58824 -0.2251,-1.80948 0,-2.35294c0.31836,-0.76856 1.08981,-0.69006 1.76468,-1.17647c1.06708,-0.7691 2.35297,-0.58824 2.94119,-0.58824c0.58823,0 2.98837,-0.40545 4.70587,0c1.28015,0.3022 3.99823,1.32735 4.7059,1.76471c1.58237,0.97793 4.22705,0.4074 5.2941,1.17647c0.67487,0.48642 2.35294,1.17647 3.52942,1.17647c0.58823,0 2.24927,0.87427 3.52942,1.17647c1.14499,0.27029 3.52942,0.58825 4.70587,1.17647c1.17648,0.58824 2.83752,1.46251 4.11765,1.76471c0.57248,0.13515 1.76471,1.17647 2.35294,1.17647c0.58826,0 1.76471,0.58823 2.35297,0.58823c0.58823,0 2.94116,1.17647 4.70587,1.17647c1.17645,0 1.76471,0.58823 2.35294,0.58823c1.17648,0 3.16876,1.12801 4.70587,1.76471c1.08691,0.45023 3.54517,1.04132 4.11765,1.17647c1.28015,0.3022 2.2493,1.46251 3.52942,1.76471c0.57248,0.13515 2.53528,0.78677 4.11765,1.76471c0.70767,0.43735 2.87149,1.28839 4.7059,2.35294c1.13763,0.6602 3.45969,1.87664 5.2941,2.94118c1.13766,0.6602 3.63882,1.58384 4.7059,2.35294c0.67487,0.48641 3.12354,1.37498 4.70587,2.35294c0.70764,0.43736 4.20648,0.84389 5.29413,2.35294c0.34393,0.4772 1.40402,1.71624 2.94116,2.35294c0.54346,0.22511 1.35883,0.19854 2.94116,1.17647c1.41531,0.8747 2.39178,1.69275 3.52942,2.35294c1.83441,1.06454 2.80066,2.00935 4.7059,2.94118c1.67099,0.81726 3.18756,1.42285 4.11765,2.35294c0.93008,0.93007 1.87411,0.99562 2.94116,1.76471c0.67487,0.48641 1.94708,0.78675 3.52942,1.7647c1.41528,0.8747 2.47745,2.18477 4.11765,3.52941c1.28665,1.05482 2.46237,2.17208 3.52942,2.94118c1.34973,0.97282 2.48785,1.95999 4.70587,2.94118c1.93961,0.85802 2.94116,1.76471 4.11765,2.35294c1.17648,0.58823 2.85455,1.86652 3.52942,2.35294c1.06705,0.76909 1.76471,1.17648 2.94116,1.7647c1.17648,0.58824 3.0506,0.99563 4.11765,1.76471c1.34973,0.97284 1.84042,1.25332 3.52942,1.7647c2.02991,0.61461 3.0506,1.58386 4.11765,2.35294c1.34973,0.97283 2.2124,2.00935 4.11765,2.94118c1.67102,0.81727 2.59933,2.01109 3.52942,2.94117c0.93008,0.93009 2.35294,1.7647 3.52942,2.94118c1.76471,1.7647 3.664,3.37037 6.47058,5.88235c1.23975,1.10961 2.35294,1.7647 4.11765,3.52941c0.58823,0.58823 0.77069,1.01117 2.35294,2.94118c1.34464,1.6402 2.35294,2.94116 2.94119,3.5294c0.58823,0.58823 1.66141,2.41052 2.35294,3.52942c1.5463,2.50189 2.77881,4.83691 4.70587,7.05882c1.09012,1.25691 1.53961,1.80948 1.76471,2.35294c0.63672,1.53716 2.46481,2.87151 3.52939,4.70589c1.32043,2.2753 2.94122,4.11765 4.11768,5.88235c1.17645,1.76471 2.28339,4.16048 4.11761,7.05882c1.13422,1.79221 2.4649,4.6362 3.52942,6.47058c0.66022,1.13766 1.53571,3.03487 2.35297,4.70589c0.93182,1.90524 1.74615,4.36005 2.94116,6.4706c0.81976,1.44781 2.19495,3.57465 2.94116,5.88234c0.97461,3.0141 2.48315,4.89326 4.11768,8.23531c0.93182,1.90523 2.03461,2.76086 2.35291,3.5294c0.4502,1.08691 1.37408,4.02394 3.52942,8.82353c1.29773,2.88976 1.93341,4.88535 4.11768,9.41176c2.98132,6.17822 3.93677,8.93295 4.70587,10c0.48645,0.67488 0.69006,1.08986 1.17645,1.76471c0.7691,1.06706 1.30835,2.29579 1.76471,3.52942c0.84143,2.27472 1.16034,3.91029 1.76471,6.47058c0.40546,1.7175 0.88019,2.88693 1.17651,5.29411c0.21564,1.75148 0.29187,4.65166 0.5882,7.05882c0.07184,0.58383 0,1.76471 0,3.52942c0,1.76471 0,3.5294 0,4.70589c0,1.17645 0,2.35294 0,4.11765c0,1.76471 0,2.94116 0,4.70587c0,0.58823 0,1.17648 0,2.35294c0,1.17648 0,1.76471 -0.5882,1.76471c-0.58826,0 -1.17651,0 -1.76471,0c-0.58826,0 -1.17651,0 -1.76471,0c-0.58826,0 -1.17651,0 -1.76471,0c-0.58826,0 -1.17651,0 -4.11768,0c-2.35291,0 -4.70587,0 -7.05884,0c-2.35291,0 -3.52936,0 -5.29407,0c-1.76471,0 -3.52942,-0.58823 -5.88239,-0.58823c-2.35291,0 -4.7688,0.54059 -7.05884,0c-1.28015,-0.30219 -2.83746,-0.87427 -4.11761,-1.17648c-0.57251,-0.13516 -1.76471,0 -2.94116,0c-1.17651,0 -2.94122,-0.58823 -3.52942,-0.58823c-1.76471,0 -4.7059,0 -6.47061,0c-2.35294,0 -5.2941,0 -6.47058,0c-2.35294,0 -4.08115,-0.29312 -7.64706,-0.58823c-1.7587,-0.14554 -4.70587,0 -6.47058,0c-1.17648,0 -3.52942,0 -7.05884,0c-1.17645,0 -3.52939,0 -6.47058,0c-2.94116,0 -5.2941,0 -7.05881,0c-3.52942,0 -6.47058,0 -8.82355,0c-2.35294,0 -4.70587,0 -6.47058,0c-2.35294,0 -4.11765,0 -5.88235,0c-2.35294,0 -4.11765,0 -6.47058,0c-1.17648,0 -3.52942,0 -6.47058,0c-1.76471,0 -2.94119,0 -4.11765,0c-1.76471,0 -4.11765,0 -5.88235,0c-2.35294,0 -4.11765,0 -5.29413,0c-0.58823,0 -2.35294,0 -3.52942,0c-1.76471,0 -3.56085,-0.31796 -4.70587,-0.58826c-1.28015,-0.30219 -1.66104,-0.87427 -2.94116,-1.17645c-0.57251,-0.13516 -1.69327,-0.87851 -3.52942,-1.17648c-1.16129,-0.18845 -1.76471,-0.58823 -2.94119,-0.58823c-1.17645,0 -2.7608,-0.85812 -3.52939,-1.17648c-1.63037,-0.67535 -3.61899,0.45023 -4.7059,0c-0.76855,-0.31836 -1.76471,-0.58823 -3.52942,-0.58823c-0.58823,0 -3.52939,-0.58823 -5.2941,-0.58823c-0.58823,0 -3.52942,0 -4.70587,0c-1.17648,0 -2.35297,0 -3.52942,0c-1.17648,0 -2.94119,0 -5.29413,0c-1.76471,0 -3.52942,0 -4.70587,0c-3.52942,0 -4.7059,0 -5.88235,0c-2.35294,0 -3.52942,0 -4.11765,0c-1.17648,0 -2.94119,0 -4.11765,0c-2.35294,0 -2.94119,0 -4.11765,0c-1.76471,0 -2.24927,-0.28604 -3.52942,-0.58826c-1.14502,-0.27029 -1.79617,0.27029 -2.94119,0c-1.28012,-0.30219 -2.35294,-0.58823 -2.94116,-0.58823c-1.17648,0 -2.35294,-0.58823 -3.52942,-0.58823c-0.58823,0 -1.59238,-0.1723 -1.17645,-0.58823c0.41592,-0.41592 0.58823,-2.94119 0.58823,-5.29413c0,-2.35294 0,-4.70589 0,-7.64706c0,-2.94118 0.58823,-4.70587 1.17648,-6.47058c0.58823,-1.76471 0.73911,-2.23352 1.17645,-2.94118c0.97794,-1.58235 1.76471,-4.11765 1.76471,-5.88235c0,-2.35294 0.87851,-3.45796 1.17648,-5.29411c0.18845,-1.16127 0.87848,-4.0462 1.17645,-5.88235c0.56534,-3.48384 0,-5.88235 0,-8.82353c0,-2.94118 0,-4.11765 0,-7.05882c0,-2.35294 0,-4.70589 0,-6.47058c0,-2.35295 0,-4.11765 0,-5.88235c0,-1.17647 0.06815,-4.09637 0.58823,-5.88235c0.6781,-2.32863 0.58826,-3.52942 0.58826,-5.88235c0,-1.76471 0,-2.94118 0,-4.70589c0,-1.76469 0,-3.5294 0,-5.29411c0,-1.76471 0,-3.5294 0,-6.47058c0,-2.35295 0,-4.11765 0,-7.05882c0,-1.76471 0,-4.11765 0,-7.05882c0,-2.35295 0.28751,-4.72351 0,-7.05882c-0.29636,-2.4072 -0.58826,-4.11765 -0.58826,-7.05882c0,-1.76471 -0.29025,-4.04622 -0.58823,-5.88235c-0.28268,-1.74192 -0.29025,-2.86974 -0.58823,-4.70589c-0.37689,-2.32256 -0.85812,-4.52554 -1.17648,-5.29411c-0.45023,-1.08691 0.11594,-2.35867 0,-3.52941c-0.29556,-2.98483 -0.89377,-4.72868 -1.17645,-6.47059c-0.29797,-1.83615 -0.58826,-2.94118 -0.58826,-4.70589c0,-0.58823 -0.29025,-2.86974 -0.58823,-4.70588c-0.18845,-1.16128 -0.58823,-2.35294 -0.58823,-3.52941c0,-1.76471 0,-3.52941 0,-5.29412c0,-1.7647 0,-3.52941 0,-5.88235c0,-2.35294 0,-3.52941 0,-5.88235c0,-2.35294 -0.2919,-4.65164 -0.58823,-7.05882c-0.21561,-1.75149 -0.58826,-3.52941 -0.58826,-5.88235c0,-2.35294 0,-4.70588 0,-6.47059c0,-1.17647 0,-2.35294 0,-2.94117c0,-1.17647 0,-2.35294 0,-3.52941c0,-0.58824 0,-1.17647 0,-1.76471c0,-1.17647 0,-2.94118 0,-4.70588c0,-1.76471 0.1723,-2.52523 0.58826,-2.94118c0.41592,-0.41594 1.1922,-0.13515 1.76468,0c2.56033,0.6044 4.75204,2.22932 6.47061,2.94118c1.21518,0.50335 1.76471,1.17648 3.52939,2.35294c1.76471,1.17648 4.07892,1.84958 5.29413,2.35294c1.71857,0.71185 3.52942,1.76471 4.70587,2.35294c2.35297,1.17648 4.9483,1.7462 7.05884,2.94118c1.44781,0.81974 2.92783,1.23261 5.29413,1.76471c2.92633,0.65803 6.45724,1.23261 8.82352,1.76471c2.92633,0.65804 5.29413,1.17648 7.05881,1.76471c1.76471,0.58824 2.98734,1.05285 4.7059,1.76471c2.43042,1.00671 4.75201,2.22932 6.47058,2.94117c1.21521,0.50336 2.31421,0.67311 3.52942,1.17648c1.71857,0.71185 3.52942,1.17648 5.2941,1.7647c1.76471,0.58824 3.57556,1.64109 5.29413,2.35294c2.43042,1.00671 3.97711,1.42111 5.88235,2.35294c1.67102,0.81727 3.76709,1.41856 6.47058,3.52942c0.6557,0.51196 3.07611,1.95998 5.29413,2.94117c1.93961,0.85802 3.52942,1.76471 4.70587,2.35294c2.35294,1.17648 2.90244,1.26135 4.11765,1.76471c1.71857,0.71186 3.52942,1.76469 4.7059,2.35294c2.35294,1.17647 4.53259,2.55659 5.88232,3.52941c1.06708,0.7691 2.35297,1.17648 3.52942,2.35294c1.17648,1.17648 1.88922,1.59655 3.52942,2.94118c1.28668,1.05482 2.01108,2.01109 2.94116,2.94118c0.93008,0.93009 1.86655,1.67806 2.35297,2.35294c0.7691,1.06705 1.98312,2.20398 3.52939,4.70589c1.38303,2.23779 2.33679,2.73382 2.94119,5.29411c0.13516,0.57249 0.733,0.36676 3.52942,2.35294c3.74561,2.66036 6.98737,5.58439 8.82352,5.88235c0.58063,0.09422 0.4079,0.85812 1.17648,1.17647c0.54346,0.2251 0.64578,1.0732 1.76468,1.76471c0.5004,0.30927 0.63303,0.36313 1.17648,0.58823c0.76855,0.31835 1.17648,1.7647 1.76471,2.35294c0.58823,0.58824 1.42285,1.42287 2.35294,2.35294c0.93008,0.93009 1.87415,0.99561 2.94119,1.7647c0.67487,0.48642 1.85104,1.68427 2.94116,2.94118c1.92706,2.22192 2.94119,3.52943 4.70587,5.29413c1.17648,1.17648 2.58054,2.8927 4.11765,3.5294c0.54349,0.22511 1.84961,0.5495 2.35297,1.76471c0.71185,1.71857 2.71402,3.7041 4.11765,5.29411c0.87048,0.98607 1.17645,1.76471 1.17645,2.94118c0,0.58824 0.29269,2.89752 0.58826,5.88235c0.23187,2.34148 0.16135,4.63821 0.58823,5.88235c0.97342,2.83708 0.91095,4.57053 1.76471,7.05882c0.97342,2.83707 2.32657,5.02892 2.94116,7.05882c0.17047,0.56299 0.90613,1.79619 1.17645,2.94118c0.60443,2.5603 2.55658,3.35616 3.52942,4.70587c0.7691,1.06706 2.05078,1.66103 2.35297,2.94118c0.13513,0.57251 0.99561,1.87411 1.76471,2.94118c0.97284,1.34972 1.5838,2.46237 2.35291,3.52942c0.97284,1.34976 1.72003,1.78815 2.35297,2.94118c1.65057,3.00673 2.57947,4.92471 4.11761,7.05882c1.45923,2.0246 3.39777,3.80453 5.29413,7.05882c1.59491,2.73695 3.1651,6.33121 5.29413,10c1.32037,2.27528 2.81757,4.16379 3.52942,5.88235c1.00671,2.4304 1.85156,4.08437 2.94116,7.05882c0.63983,1.74666 1.7486,2.73383 2.35297,5.29411c0.40546,1.7175 0.92328,3.60762 1.76471,5.88235c0.45636,1.23361 0.6731,1.72597 1.17645,2.94118c0.71185,1.71855 0.37268,3.54262 0.58826,5.29411c0.29633,2.40717 1.17645,3.52942 1.17645,7.05881c0,1.76471 0,2.94119 0,2.35297c0,-1.17648 -0.21552,-7.01981 -1.17645,-12.94119c-0.75964,-4.68126 -1.46985,-9.96866 -1.76471,-14.11765c-0.25018,-3.52052 -0.87134,-6.40578 -2.35297,-13.5294c-1.45721,-7.00626 -2.82715,-14.72379 -3.52942,-18.82353c-0.50641,-2.95636 -1.46674,-5.81091 -1.76471,-7.64705c-0.47113,-2.9032 -1.64453,-5.93596 -3.52942,-10c-2.21368,-4.77296 -3.51093,-7.30121 -4.70587,-9.41177c-0.40985,-0.72389 -1.70959,-1.82555 -2.35291,-2.35294c-1.6402,-1.34465 -2.6889,-2.75262 -5.29413,-4.11765c-1.64771,-0.86333 -2.35297,-1.17647 -2.94116,-1.17647c-0.58826,0 -1.34882,-0.17232 -1.76471,-0.58824c-0.41595,-0.41595 -0.70416,-0.58252 -0.58826,0.58824c0.29559,2.98483 0.6731,3.49068 1.17645,4.70587c0.71185,1.71858 1.46252,3.42575 1.76471,4.70589c0.27026,1.145 0.58826,2.35295 1.76471,4.11765c1.17651,1.76472 2.12787,2.39771 2.35297,2.94118c0.3183,0.76855 1.26135,3.49068 1.76471,4.70589c1.42371,3.43712 1.9165,8.17903 2.94116,11.17647c1.38525,4.05217 1.92609,6.99115 2.35297,8.23529c0.97345,2.83707 1.49445,6.50204 1.76471,7.64706c0.90656,3.84042 2.43781,5.8436 2.94116,7.05882c1.42371,3.43712 1.6748,5.90668 2.35291,8.23529c0.52008,1.786 1.33783,4.04999 1.76471,5.29411c0.97339,2.83708 0.31793,4.73737 0.58826,5.88235c0.30219,1.28015 0.41779,2.37817 0.58826,2.94118c0.61462,2.02991 1.17645,2.94118 1.17645,3.5294c0,0.58824 0,2.35295 0,2.94118c0,0.58824 0,1.17648 0,1.76471c0,1.17647 0.41595,2.52525 0,2.94118c-0.41595,0.41595 -0.58826,0.58823 -0.58826,1.17648c0,0.58823 1.27979,1.23404 0.58826,2.35294c-0.30927,0.5004 -1.17645,0 -1.76471,0c-0.58826,0 -1.17645,0 -1.76471,0c-0.58826,0 -1.17645,0 -1.76471,0c-0.58826,0 -1.17645,0 -1.76471,0c-1.17645,0 -2.3775,0.44931 -6.47058,0c-5.39087,-0.59177 -7.59277,-2.05661 -10,-2.35294c-1.75146,-0.21561 -2.35297,0 -2.94116,0c-1.17651,0 -2.35297,0 -4.70587,0c-1.17651,0 -3.52942,-0.58826 -5.29413,-0.58826c-2.35297,0 -4.11765,0 -6.47061,0c-2.35294,0 -4.11765,-0.58823 -6.47058,-0.58823c-1.76471,0 -3.52942,0 -6.47058,0c-1.76471,0 -3.52942,0 -4.11765,0c-1.17648,0 -2.94119,0 -5.29413,0c-1.76471,0 -4.11765,0 -7.05881,0c-1.76471,0 -5.29413,0 -6.47061,0c-1.76468,0 -2.35294,0 -5.88232,0c-2.35297,0 -4.11765,0 -6.47061,0c-1.76471,0 -3.54083,-0.23184 -5.88235,0c-2.9848,0.29556 -7.05881,0.58823 -9.41174,0.58823c-2.94119,0 -5.88235,0 -6.47058,0c-1.76471,0 -4.11768,0 -5.88235,0c-2.35297,0 -5.29413,0 -6.47061,0c-1.76471,0 -3.52939,0 -5.88235,0c-2.35294,0 -4.11765,0 -5.88235,0c-2.35294,0 -4.11765,0 -5.88232,0c-1.76471,0 -2.38336,0.37689 -4.7059,0c-1.83615,-0.29797 -4.12646,-1.03271 -5.2941,-1.17645c-2.4072,-0.29636 -4.10431,-0.64438 -6.47061,-1.17648c-2.92633,-0.65804 -4.80997,-0.20306 -7.64703,-1.17647c-1.24414,-0.42686 -2.95883,-0.30074 -5.29413,-0.58823c-2.40717,-0.29634 -5.2399,-1.46837 -7.64706,-1.76471c-1.16763,-0.14374 -2.35294,0 -4.11765,0c-0.58823,0 -2.3844,-0.31795 -3.52942,-0.58824c-1.28012,-0.3022 -2.35294,-0.58823 -2.94116,-0.58823c-1.76471,0 -2.94119,0 -4.11765,0c-1.76471,0 -3.52942,0 -4.11765,0c-0.58826,0 -1.17648,0 -2.35294,0c-1.17648,0 -2.35297,0 -3.52942,0c-1.17648,0 -2.4425,0.45023 -3.52942,0c-0.76855,-0.31836 -2.28149,-0.87851 -4.11765,-1.17648c-0.58063,-0.09422 -2.35294,-0.58823 -2.35294,0c0,0.58823 1.18008,0.15993 4.70587,0c6.4906,-0.29442 11.76471,-0.58823 15.88235,-0.58823c3.52942,0 7.05884,0 10,0c2.35294,0 5.29413,0 8.23529,0c2.35294,0 4.11765,0 5.88235,0c2.94119,0 5.29413,0 6.47058,0c2.35294,0 3.52942,0 5.88235,0c1.76471,0 4.7059,0 7.05884,0c1.76471,0 4.11765,0 5.88235,0c2.35294,0 5.88235,0 8.82352,0c2.94119,0 5.88235,0 8.23529,0c2.94119,0 7.05884,0 10,0c4.7059,0 6.47058,0 7.64706,0c2.35294,0 4.11765,0 7.05881,0c3.52942,0 6.47061,0 8.23532,0c2.35294,0 4.11765,0 5.88235,0c2.35294,0 5.88232,0 8.23529,0c1.76468,0 4.70587,0 7.05881,0c1.76471,0 5.29413,0 8.23529,0c2.94119,0 5.29413,0 7.05884,0c1.76471,0 2.94116,0 5.88235,0c2.94116,0 6.47058,0 10.58823,0c5.29413,0 10,0 15.88232,0c2.94122,0 5.88239,0 8.82355,0c2.94116,0 5.29413,0 7.64709,0c2.35291,0 4.11761,0 5.29407,0c1.17651,0 2.35297,0 2.94122,0c0.5882,0 1.17645,0 1.76471,0c0.5882,0 0.85809,-0.4079 1.17645,-1.17647c0.2251,-0.54346 0.5882,-2.35295 1.17645,-3.52942c0.58826,-1.17647 0.58826,-1.76471 0,-1.76471c-0.58826,0 -1.17645,0 -1.76471,0c-0.5882,0 -1.17645,0 -3.52942,0c-2.35291,0 -5.8335,-1.17555 -16.47058,-1.76469c-8.81006,-0.48795 -16.44617,-1.47014 -21.76468,-1.76471c-2.93671,-0.16264 -4.7059,-0.58824 -6.47061,-0.58824c-2.94116,0 -6.47058,0 -10,0c-2.94116,0 -5.88235,0 -8.82352,0c-2.94119,0 -6.47058,0 -8.82352,0c-2.35297,0 -5.29413,0 -7.64706,0c-1.17648,0 -5.29413,0 -7.64706,0c-2.35294,0 -4.70587,0 -6.47058,0c-2.35294,0 -4.7059,0 -7.05884,0c-1.76471,0 -5.2941,0 -7.64706,0c-2.35294,0 -4.70587,0 -8.82352,0c-2.94116,0 -5.88235,0 -8.82352,0c-2.35297,0 -4.7059,0 -7.64706,0c-1.17648,0 -4.7059,0 -7.64706,0c-2.94116,0 -5.25763,0.29312 -8.82352,0.58824c-1.7587,0.14555 -4.7059,0 -7.05884,0c-2.35294,0 -5.88235,0 -8.82352,0c-1.76471,0 -3.54462,0.39978 -4.7059,0.58823c-1.83615,0.29797 -3.52939,0.58824 -5.88235,0.58824c-2.35294,0 -3.52939,0.58824 -5.2941,0.58824c-1.76471,0 -3.55222,-0.28267 -5.29413,0c-1.83615,0.29796 -3.52942,0.58823 -4.70587,0.58823c-1.17648,0 -2.35294,0 -4.11765,0c-1.17648,0 -2.83752,0.28604 -4.11765,0.58824c-2.28998,0.5406 -4.7059,0 -8.23529,0c-2.35297,0 -2.94119,0 -3.52942,0c-0.58823,0 -1.17648,0 -1.17648,-0.58824c0,-0.58823 -0.22513,-1.22125 0,-1.76471c0.31836,-0.76857 1.17648,-1.76471 2.35294,-2.35294c2.35297,-1.17648 4.65167,-2.05659 7.05884,-2.35294c1.7515,-0.21562 4.71155,0.18275 7.64706,0c4.73334,-0.29469 8.7991,-1.47014 14.11765,-1.76471c2.34933,-0.13013 4.11765,0 5.2941,0c2.35297,0 4.73053,0.17142 9.41177,-0.58824c2.96069,-0.48045 7.05884,-0.58823 10,-0.58823c3.52942,0 7.05884,-0.58824 11.17648,-0.58824c4.11765,0 10,0 12.35294,0c2.94116,0 4.70587,0 7.05881,0c4.11765,0 8.23529,-0.58823 12.94119,-0.58823c2.94116,0 5.88235,0 8.23529,0c2.94116,0 5.88235,0 10.58823,0c5.29413,0 9.41177,0 14.11765,0c4.11765,0 7.64706,-0.58824 10,-0.58824c3.52942,0 6.47058,0 8.82355,0c2.35294,0 5.2941,0 8.82352,0c2.35294,0 4.70587,0 8.23529,0c4.70587,0 8.82352,0 10.58823,0c6.47058,0 10.58826,0 11.17645,0c2.35297,0 4.11768,0 5.88239,0c1.17645,0 2.8869,0.2919 5.29413,0.58824c2.33527,0.28749 5.29413,0 5.88232,0c1.17645,0 2.35297,0 3.52942,0c1.17645,0 2.35297,0 3.52942,0c0.58826,0 1.18524,0.14375 2.35297,0c2.40717,-0.29634 1.17645,-0.58824 0.5882,-0.58824c-1.17645,0 -1.76471,0 -2.94116,0c-1.17645,0 -2.96393,0.30557 -4.70587,0.58824c-1.83612,0.29796 -2.35297,1.76466 -2.35297,1.17647c0,-0.5882 -3.19489,-1.24632 -4.70587,-7.64706c-0.27032,-1.14499 0,-2.94118 0,-4.11765c0,-0.58823 -0.1723,-0.76051 -0.58826,-1.17647c-0.41595,-0.41595 0,-1.76471 0,-2.94118c0,-0.58824 -1.18402,-0.68246 -1.76471,-0.58824c-1.83612,0.29797 -2.24921,0.87428 -3.52936,1.17648c-0.57251,0.13516 -1.76471,0 -2.35297,0c-0.58826,0 -1.80951,-0.22513 -2.35297,0c-0.76855,0.31834 -1.17645,1.17647 -1.76471,1.17647c-0.5882,0 -1.17645,0 -1.76471,0c-1.17645,0 -4.68634,0.10777 -7.64703,0.58823c-4.68124,0.75966 -7.64706,1.17648 -9.41177,1.17648c-2.35294,0 -2.94116,0 -5.2941,0c-2.35294,0 -5.29413,0 -8.23529,0c-2.94119,0 -5.2399,0.88013 -7.64706,1.17647c-2.3353,0.28749 -5.29413,0.58823 -8.23529,0.58823c-4.11765,0 -7.0152,0.29268 -10,0.58824c-2.92688,0.28983 -5.29413,0.58823 -8.82355,0.58823c-2.94116,0 -5.90024,-0.11403 -10,0.58824c-2.95636,0.50641 -5.2941,0.58824 -8.82352,0.58824c-2.35294,0 -4.72018,0.2984 -7.64706,0.58823c-2.9848,0.29556 -5.2941,0.58824 -8.23529,0.58824c-2.94116,0 -6.47058,0 -9.41177,0c-1.76468,0 -4.11765,0 -5.88232,0c-2.94119,0 -4.11765,0 -6.47061,0c-1.76471,0 -5.88235,0 -8.23529,0c-3.52942,0 -5.2941,0 -8.82352,0c-2.35294,0 -5.29413,0 -7.05884,0c-2.94116,0 -5.25046,-0.29268 -8.23529,-0.58824c-1.75613,-0.17389 -4.70587,0 -5.88235,0c-0.58823,0 -2.35294,0 -3.52939,0c-1.17648,0 -1.76471,0 -3.52942,0c-1.76471,0 -4.11765,0 -6.47058,0c-2.35297,0 -4.7059,-1.17648 -4.7059,0c0,0.58826 1.18423,-0.23375 4.7059,0c8.88205,0.58952 26.47058,2.94118 47.05881,2.94118c17.05881,0 28.23529,0 39.41177,0c7.05881,0 18.82352,0 30.58823,0c11.76471,0 21.17645,0 25.88235,0c3.52942,0 5.88235,0 10.58823,0c9.41177,0 16.47061,0 22.35294,0c3.52942,0 5.29413,0 5.88239,0c0.5882,0 1.64526,-0.15088 2.35291,-0.58823c1.58234,-0.97794 3.21106,-0.4079 3.52942,-1.17648c0.2251,-0.54344 0.55676,-0.90616 -0.58826,-1.17647c-1.28015,-0.3022 -2.59534,-0.5697 -4.70587,-1.76471c-0.72388,-0.40987 -1.44635,-0.99612 -1.76471,-1.76469c-0.2251,-0.54346 -0.5163,-1.76912 -0.5882,-2.35295c-0.29633,-2.40718 -1.17651,-5.88234 -1.17651,-6.47058c0,-0.58824 -0.5882,-1.76471 -0.5882,-2.94118c0,-0.58824 -0.15088,-2.23352 -0.58826,-2.94118c-0.97797,-1.58235 -1.71625,-3.16872 -2.35297,-4.70589c-0.4502,-1.08691 -0.42004,-1.88919 -1.76471,-3.5294c-1.05481,-1.28665 -2.55652,-2.17969 -3.52936,-3.52942c-0.7691,-1.06706 -1.17651,-2.35295 -1.76471,-2.94118c-0.58826,-0.58824 -0.58826,-1.17645 -1.17651,-1.76469c-0.5882,-0.58823 -1.17645,-1.76471 -1.76468,-2.35295c-0.58823,-0.58823 -0.72626,-1.85425 -1.17648,-2.94118c-0.63669,-1.53712 -1.58386,-2.46234 -2.35294,-3.5294c-0.48642,-0.67487 -0.87848,-1.69327 -1.17645,-3.52942c-0.09421,-0.58063 -0.8743,-1.66103 -1.17648,-2.94118c-0.13513,-0.57249 0.27029,-1.20793 0,-2.35294c-0.30219,-1.28014 -0.87851,-1.69327 -1.17648,-3.5294c-0.28268,-1.74193 -0.31793,-2.97266 -0.58823,-4.11766c-0.30219,-1.28014 -0.87851,-2.28149 -1.17648,-4.11765c-0.09424,-0.58063 -0.45309,-1.1922 -0.58823,-1.76469c-0.30219,-1.28015 -1.04129,-1.78044 -1.17645,-2.35295c-0.30222,-1.28015 -0.63303,-1.5396 -1.17648,-1.76469c-2.30569,-0.95505 -2.17206,-3.0506 -2.94116,-4.11766c-0.97284,-1.34973 -1.96326,-2.53529 -2.94119,-4.11765c-0.87469,-1.41528 -2.35294,-2.35292 -3.52942,-3.5294c-1.17645,-1.17647 -1.28589,-2.17209 -2.35294,-2.94118c-0.67487,-0.48642 -1.17645,-1.17647 -1.76471,-1.76471c-0.58823,-0.58823 -1.17645,-1.17647 -1.76471,-1.76471c-1.76468,-1.76468 -3.9595,-3.69656 -7.05881,-6.47058c-2.80658,-2.512 -5.12085,-4.3213 -6.47058,-5.29412c-1.06705,-0.7691 -1.53961,-1.22124 -1.76471,-1.7647c-0.63672,-1.53714 -2.47745,-2.18478 -4.11765,-3.52941c-1.28668,-1.05482 -1.80948,-1.53961 -2.35294,-1.76471c-0.76859,-0.31835 -0.40741,-1.28589 -1.17648,-2.35294c-0.97284,-1.34974 -1.58386,-1.2859 -2.35294,-2.35294c-0.97284,-1.34974 -1.17648,-1.76471 -1.76471,-2.35294c-0.58823,-0.58823 -0.99564,-1.28588 -1.76471,-2.35294c-0.48642,-0.67487 -2.24966,-1.23405 -2.94116,-2.35294c-0.30927,-0.50038 -0.36316,-1.22125 -0.58826,-1.76471c-0.31836,-0.76856 -1.76471,-1.7647 -2.35294,-2.35294c-0.58823,-0.58824 -1.17645,-1.17647 -2.35294,-2.35294c-1.76471,-1.7647 -3.18756,-3.18757 -4.11765,-4.11765c-0.93008,-0.93009 -1.48245,-1.36687 -2.35294,-2.35294c-1.40363,-1.59 -3.87881,-2.65471 -5.29413,-3.52941c-1.58237,-0.97794 -1.99228,-1.71624 -3.52942,-2.35294c-0.54346,-0.22511 -1.64529,-0.73912 -2.35294,-1.17647c-1.58234,-0.97795 -3.54517,-1.62956 -4.11765,-1.76471c-1.28012,-0.3022 -2.3844,-1.4944 -3.52942,-1.7647c-2.5603,-0.6044 -3.23779,-0.60911 -5.88235,-2.35294c-1.38898,-0.91589 -2.53531,-1.37498 -4.11765,-2.35294c-0.70764,-0.43736 -1.76471,-0.58825 -2.94116,-1.17648c-1.17648,-0.58824 -2.35294,-1.7647 -4.11765,-2.35294c-1.76471,-0.58823 -2.76086,-1.44635 -3.52942,-1.7647c-1.63037,-0.67533 -2.76627,-0.90668 -4.70587,-1.76471c-2.21802,-0.98119 -4.14911,-1.4944 -5.29413,-1.7647c-2.5603,-0.6044 -3.42575,-2.05074 -4.70587,-2.35294c-1.7175,-0.40545 -3.55222,-0.89379 -5.29413,-1.17647c-1.83615,-0.29797 -3.03073,-0.72625 -4.11765,-1.17647c-1.53711,-0.6367 -2.95599,-1.10667 -5.88235,-1.76471c-2.36627,-0.53209 -4.12051,-1.70675 -4.70587,-1.76471c-2.98483,-0.29556 -4.01398,-1.46251 -5.29413,-1.76471c-1.7175,-0.40544 -3.45798,-0.87851 -5.2941,-1.17647c-1.74191,-0.28268 -2.86975,-0.8785 -4.7059,-1.17647c-0.58063,-0.09422 -1.2547,0.25324 -3.52942,-0.58824c-1.23361,-0.45635 -2.39771,-0.36313 -2.94116,-0.58823c-0.76855,-0.31835 -1.17648,-0.58823 -1.76471,-0.58823c-0.58823,0 -1.34875,-0.41596 -1.76471,0c-0.41595,0.41594 0,2.35294 0,4.11765c0,1.17647 0,2.35294 0,2.94118c0,1.17647 0,1.76471 0,3.52941c0,0.58823 0,1.17647 0,1.7647c0,0.58824 0.2699,0.99613 0.58826,1.76471c0.67532,1.63036 0,2.94118 0,3.52941c0,1.17647 0,2.35294 0,2.94118c0,0.58823 0,1.7647 0,2.94118c0,1.7647 0,3.52941 0,4.70588c0,1.17647 -0.23184,2.3644 0,4.70588c0.29556,2.98483 0.58823,5.29412 0.58823,5.88235c0,1.76471 0,2.94118 0,5.29412c0,1.17647 0,2.35294 0,4.11765c0,1.17647 0,2.94118 0,4.11765c0,1.17647 0,2.35294 0,4.70588c0,1.17648 0,2.94118 0,4.70589c0,1.7647 0,2.94118 0,4.70588c0,1.76471 0,4.70589 0,5.88235c0,1.76471 -0.37689,2.97156 0,5.29411c0.29797,1.83615 0.87427,4.01398 1.17645,5.29413c0.54059,2.28999 0.2919,4.0634 0.58826,6.47058c0.43124,3.50296 0,5.88235 0,8.23529c0,2.35295 0.58823,4.11765 0.58823,6.4706c0,2.35294 0,4.70587 0,7.05882c0,2.35294 0,4.11765 0,5.29411c0,1.76471 0,3.5294 0,5.29411c0,2.35295 0,2.94118 0,5.29411c0,1.76471 0,4.70589 0,5.88235c0,1.76471 0.58823,3.52942 0.58823,6.4706c0,2.94118 0.28604,4.01396 0.58826,5.29411c0.13516,0.57251 0,2.35294 0,3.52942c0,0.58823 0,1.17647 0,2.35294c0,1.17647 0,2.35294 0,4.11765c0,0.58824 0,1.17647 0,2.94118c0,1.17647 -0.34393,1.87575 0,2.35294c1.08765,1.50903 4.66223,1.46915 7.64703,1.76471c5.85373,0.57964 8.23529,0 10.58826,0c0.58823,0 1.76471,0 4.11765,0c1.17645,0 3.52939,0 5.2941,0c0.58826,0 1.17648,0 1.76471,0c0.58826,0 3.52942,0 4.7059,0c0.58823,0 1.76468,0 3.52939,0c1.17648,0 1.76471,0 4.7059,0c0.58823,0 2.35294,0 5.2941,0c0.58826,0 2.94119,0 7.64706,0c0.58823,0 2.94119,0 5.29413,0c0.58823,0 1.76471,0 3.52939,0c1.76471,0 3.52942,0 7.64706,0c1.17648,0 3.45807,1.24783 4.7059,0c0.41595,-0.41595 2.35294,-0.58824 5.88235,-0.58824c1.76468,0 4.70587,0 7.05881,0c0.58823,0 2.35294,0 5.88235,0c1.17648,0 3.52942,0 6.47058,0c2.35294,0 4.7059,0 8.82355,0c1.76471,0 4.11765,0 7.64703,0c1.17648,0 2.94119,0 5.88235,0c1.17648,0 2.35297,0 4.11765,0c1.17648,0 2.94119,-0.58823 4.11765,-0.58823c1.76471,0 4.11768,0 7.05884,0c1.76471,0 2.3093,-0.29268 5.29413,-0.58824c0.58536,-0.05797 2.35294,-0.58823 5.2941,-0.58823c1.17648,0 2.98343,0.18161 5.88235,-0.58824c1.79785,-0.47745 2.94119,-0.58823 5.88235,-0.58823c2.35294,0 2.94119,-0.58824 5.88235,-0.58824c0.58826,0 2.94556,-0.51637 3.52942,-0.58824c2.40717,-0.29634 3.11346,-0.17227 3.52942,-0.58823c0.41595,-0.41595 0.51141,-1.2522 0,-2.94118c-0.61462,-2.02992 -1.69189,-4.14362 -2.35297,-5.88235c-1.5921,-4.18742 -3.00714,-6.42252 -4.70587,-8.82353c-1.22498,-1.73138 -1.76471,-4.11765 -2.94116,-6.47058c-1.76471,-3.52942 -2.82101,-5.93597 -4.7059,-10c-1.66028,-3.57973 -2.46371,-4.67274 -2.94116,-6.4706c-0.76987,-2.89894 -1.08661,-3.55371 -1.76471,-5.88235c-1.04016,-3.57196 -1.76471,-4.11765 -2.35294,-5.29411c-0.58826,-1.17647 -1.64404,-2.42146 -2.35294,-3.5294c-2.03,-3.17271 -2.19061,-3.66045 -4.11765,-5.88235c-1.63516,-1.88538 -1.76471,-2.94118 -2.94119,-4.11765c-2.94116,-2.94116 -3.65106,-4.00746 -4.70587,-5.29413c-1.34464,-1.6402 -2.77301,-3.06569 -4.11765,-4.70587c-1.05481,-1.28668 -3.21442,-2.62616 -5.29413,-4.70589c-2.07971,-2.07973 -2.94116,-2.94119 -4.70587,-4.70588c-0.58826,-0.58824 -2.90479,-2.39917 -5.88235,-4.70589c-2.32507,-1.80124 -6.05707,-4.47872 -7.64706,-5.88235c-1.97217,-1.74097 -4.11765,-1.76471 -5.88235,-2.94118c-1.76471,-1.17648 -3.45972,-2.46487 -5.29413,-3.52941c-2.2753,-1.3204 -3.94437,-1.96835 -5.2941,-2.94118c-1.06708,-0.7691 -3.05637,-0.96992 -5.29413,-2.35294c-2.50189,-1.54626 -5.67499,-2.925 -8.23529,-3.52941c-1.7175,-0.40545 -4.08411,-1.24609 -6.47058,-2.35294c-4.06403,-1.8849 -9.41177,-4.11766 -12.35294,-5.29412c-2.94119,-1.17648 -5.90665,-2.85132 -8.23529,-3.52941c-1.78598,-0.52008 -3.55371,-1.67485 -5.88235,-2.35294c-1.78598,-0.52008 -4.12646,-0.44449 -5.29413,-0.58823c-2.40717,-0.29634 -5.8252,-1.89659 -7.05884,-2.35294c-2.27469,-0.84147 -5.91379,-0.90617 -7.05881,-1.17647c-2.5603,-0.6044 -4.12204,-1.1046 -4.70587,-1.17647c-2.4072,-0.29634 -2.95694,-1.04133 -3.52942,-1.17648c-1.28015,-0.3022 -2.11411,-0.89 -3.52942,-1.7647c-1.58237,-0.97794 -2.87146,-1.2884 -4.70587,-2.35294c-1.13766,-0.6602 -2.35294,-1.17646 -2.94119,-1.7647c-0.58823,-0.58823 -1.17645,-0.58824 -2.35294,-1.76471c-1.17648,-1.17647 -2.83789,-1.82228 -3.52942,-2.94118c-0.30927,-0.50038 -0.17227,-0.76052 -0.58823,-1.17647c-0.41592,-0.41594 -0.76053,-0.17227 -1.17648,-0.58823c-0.41595,-0.41595 -0.41595,-1.34876 0,-1.76471c0.41595,-0.41596 1.17648,0 1.76471,0c0.58826,0 1.17648,0 1.76471,0c1.17648,0 2.17261,0.85812 2.94119,1.17648c0.54346,0.2251 1.76471,0.58824 2.94116,1.17647c1.17648,0.58824 1.76471,1.17647 2.35294,1.17647c1.17648,0 1.22125,0.36313 1.76471,0.58823c0.76855,0.31835 1.87411,0.99561 2.94119,1.76471c0.67487,0.48641 1.1922,0.45308 1.76471,0.58823c1.28012,0.3022 1.94702,0.19853 3.52939,1.17647c0.70767,0.43736 1.80948,0.36314 2.35294,0.58824c0.76859,0.31835 2.53534,0.78675 4.11768,1.7647c0.70764,0.43735 2.17261,1.44636 2.94116,1.76471c0.54346,0.22511 1.79617,0.31794 2.94116,0.58823c1.28015,0.3022 2.17264,0.85812 2.94119,1.17647c1.08691,0.45021 2.9624,0.36575 4.11765,0.58823c3.11057,0.59904 4.11765,1.17648 5.29413,1.17648c1.76468,0 4.70587,1.17647 7.05881,1.17647c0.58823,0 2.83752,0.87427 4.11765,1.17647c0.57248,0.13515 2.35294,0 4.11765,0.58824c1.76471,0.58823 3.52942,0.58823 4.7059,1.17647c1.17645,0.58823 3.00409,0.04765 5.2941,0.58823c1.28015,0.3022 2.94119,1.17647 4.7059,1.17647c1.17645,0 1.69324,0.87851 3.52939,1.17648c1.16129,0.18845 2.95694,1.04132 3.52942,1.17647c1.28015,0.3022 1.93701,0.17229 2.35294,0.58823c0.41595,0.41595 0.58826,0.58824 1.76471,1.17648c1.17648,0.58824 1.76471,1.17647 1.17648,1.17647c-0.58826,0 -1.33295,0.37128 -5.88235,-1.76471c-4.29288,-2.01555 -12.40515,-6.95714 -17.05884,-9.41176c-5.35675,-2.82546 -9.39618,-5.32947 -14.70587,-7.64706c-4.1058,-1.79211 -9.4364,-3.35799 -14.11765,-4.11765c-2.96072,-0.48045 -7.64706,-1.17647 -11.76471,-1.7647c-4.11765,-0.58823 -6.47058,-0.58823 -9.41177,-0.58823c-2.35294,0 -6.48114,0.53153 -12.94116,1.7647c-2.94623,0.56242 -4.11765,0.58823 -4.70587,0.58823c-0.58826,0 -0.76056,0.17229 -1.17648,0.58823c-0.41595,0.41595 -0.58823,2.35294 -0.58823,4.70589c0,1.17647 -0.21561,2.36617 0,4.11765c0.29633,2.40719 0.58823,3.52941 1.17645,6.47059c0.58826,2.94118 0.88901,5.31174 1.17648,7.64706c0.29633,2.40719 1.46915,4.07399 1.76471,7.05882c0.11594,1.17075 0.85202,2.82685 1.76471,5.29412c0.84146,2.2747 0.89377,4.14043 1.17645,5.88235c0.29797,1.83614 1.46838,4.65164 1.76471,7.05883c0.28748,2.3353 -0.19406,5.30213 0,7.64706c0.2951,3.5659 0.58823,6.47059 0.58823,9.41177c0,3.5294 0,7.64705 0,8.82353c0,3.5294 0,8.82352 0,10.58823c0,5.29411 0.58826,9.41176 0.58826,12.94118c0,2.94118 0.58823,5.29411 0.58823,7.05882c0,2.35294 0,5.29411 0,7.64706c0,2.94118 0,5.29411 0,7.05882c0,1.76469 0,4.11765 0,5.29411c0,2.94118 0,4.70589 0,5.88235c0,0.58823 0,2.35294 0,4.11765c0,0.58823 0,1.17647 0,2.35294c0,1.17647 0,2.94118 0,3.52942c0,0.58823 0.633,0.81334 1.17648,0.58823c0.76855,-0.31834 4.11765,-0.58823 7.05881,-0.58823c2.35294,0 5.34555,0.12122 8.23529,-1.17647c2.39981,-1.07768 5.88235,-2.35295 6.47058,-2.35295c1.17648,0 1.78046,0.13515 2.35297,0c1.28012,-0.3022 4.11765,-1.17647 7.05881,-1.17647c1.76471,0 4.11765,0 6.47058,0c1.76471,0 2.86975,-0.29027 4.7059,-0.58824c2.32254,-0.37691 3.52939,0 4.70587,0c2.35294,0 3.52942,0 4.70587,0c1.76471,0 3.00412,0.54059 5.29413,0c1.28015,-0.3022 4.11765,-0.58823 6.47058,-0.58823c1.76471,0 4.11765,0 5.29413,0c1.17645,0 2.94116,0 4.70587,0c2.35294,0 4.11765,0 5.29413,0c2.94116,0 4.11765,0 6.47058,0c1.76471,0 4.11765,0 6.47058,0c1.76471,0 3.52942,0 4.7059,0c0.58823,0 1.78043,0.13516 2.35294,0c1.28012,-0.3022 2.94116,-0.58824 4.70587,-0.58824c2.35294,0 4.11765,0 5.88235,0c1.76471,0 3.52942,0 4.70587,0c1.76471,0 4.11765,0 5.88235,0c3.52942,0 4.7059,0 6.47061,0c1.17645,0 2.35294,0 4.11765,0c1.76468,0 2.94116,0 4.11765,0c0.58823,0 2.35294,0 2.94116,0c1.17648,0 2.35294,0 2.94119,0c1.76468,0 2.94116,0 4.70587,0c1.17645,0 2.35294,0 2.94116,0c0.58826,0 1.17648,0 1.76471,-0.58823c0.58826,-0.58824 0.76056,-0.76053 1.17648,-1.17647c0.41592,-0.41594 1.17645,-0.58824 1.17645,-1.17648c0,-1.17647 0,-1.76469 0,-2.35294c0,-0.58824 -0.06815,-1.1552 -0.58823,-2.94118c-0.6781,-2.32863 -1.50128,-4.85721 -2.94116,-7.05882c-2.51468,-3.84497 -4.33606,-5.14516 -5.88235,-7.64706c-0.69153,-1.1189 -1.76471,-2.94116 -3.52942,-5.29411c-1.76471,-2.35294 -4.57031,-4.34763 -5.88235,-6.47058c-0.97794,-1.58235 -1.9472,-2.77586 -3.52942,-4.70589c-1.34464,-1.6402 -2.35294,-4.11765 -3.52939,-5.88235c-1.17648,-1.76471 -1.96835,-2.17967 -2.94119,-3.5294c-0.76907,-1.06705 -2.06647,-2.70236 -2.94116,-4.11765c-0.97797,-1.58235 -2.12787,-3.57419 -2.35297,-4.11766c-0.63669,-1.53712 -1.53958,-1.80948 -1.76468,-2.35294c-0.63672,-1.53714 -1.91727,-2.218 -2.94119,-3.5294c-2.11087,-2.70352 -2.17209,-3.63884 -2.94116,-4.70589c-0.97284,-1.34973 -1.83157,-1.70145 -2.94119,-2.94118c-2.51199,-2.80655 -2.83096,-3.06282 -4.11765,-4.11765c-1.6402,-1.34464 -2.24274,-1.88636 -3.52942,-2.94118c-1.6402,-1.34463 -2.47067,-2.19308 -4.11765,-3.52941c-2.45987,-1.9959 -4.11765,-1.76472 -5.2941,-2.94118c-2.35297,-2.35296 -2.86075,-2.43931 -4.11765,-3.52941c-2.22192,-1.92708 -4.24216,-2.77301 -5.88235,-4.11765c-2.57333,-2.10963 -3.0657,-2.77301 -4.7059,-4.11765c-2.57333,-2.10963 -2.94116,-2.94118 -5.2941,-4.11765c-2.35294,-1.17647 -3.52942,-1.76469 -4.7059,-2.35294c-2.35294,-1.17647 -3.53226,-1.70674 -4.11765,-1.76471c-2.9848,-0.29556 -5.8147,-1.92606 -7.05881,-2.35294c-2.8371,-0.97343 -4.12524,-1.08224 -4.7059,-1.17648c-1.83612,-0.29797 -2.37723,-0.49837 -4.70587,-1.17647c-3.57196,-1.04015 -4.09637,-1.24463 -5.88235,-1.76471c-2.32861,-0.6781 -2.94412,-1.09307 -4.11765,-1.17647c-4.14899,-0.29486 -5.29413,-1.76471 -7.64706,-2.35294c-4.70587,-1.17647 -6.49182,-2.13046 -7.64703,-2.35294c-3.1106,-0.59904 -4.71652,-1.06524 -5.29413,-1.17648c-3.1106,-0.59904 -4.70587,-1.17647 -5.88235,-1.17647c-0.58823,0 -1.76471,-0.58823 -2.35294,-0.58823c-1.17648,0 -2.36053,0.09423 -2.94119,0c-1.83615,-0.29797 -2.94116,-1.17648 -3.52939,-1.17648c-0.58826,0 -1.78046,-0.45308 -2.35297,-0.58823c-1.28012,-0.3022 -1.76471,-1.17647 -2.94116,-1.17647c-0.58823,0 0,0 0.58823,0c0.58823,0 2.41959,1.07944 5.88235,3.52941c2.401,1.69874 4.78354,3.9737 7.05884,5.29411c1.83441,1.06454 3.0289,2.77567 6.47058,4.70589c4.84015,2.71453 8.5629,6.40819 16.47058,10c4.57596,2.07848 7.87976,3.0028 12.35294,5.29411c3.77536,1.93386 10.49246,6.11479 18.82355,9.41177c6.40201,2.53355 10.99625,3.37081 14.70587,5.88235c2.06659,1.39915 5.36075,4.02064 8.82352,6.47059c4.802,3.39749 6.9183,5.53876 8.82355,6.47058c1.67102,0.81726 3.25806,2.12143 4.70587,2.94118c2.11053,1.19496 3.85245,1.73834 5.88235,2.35295c1.689,0.51138 3.03171,0.61842 4.70587,1.17647c2.79022,0.93007 4.04788,3.11382 8.23529,4.70587c1.73874,0.66107 2.97266,1.49442 4.11765,1.76471c2.5603,0.6044 4.7059,2.94118 6.47061,3.52942c1.76471,0.58823 2.46234,0.40739 3.52939,1.17647c0.67487,0.48642 1.99231,1.71623 3.52942,2.35294c0.54349,0.22511 -0.02133,0.15701 -0.58823,0c-3.30554,-0.91557 -4.65738,-2.97449 -5.88235,-4.70587c-1.69876,-2.401 -4.11765,-5.29413 -7.05884,-9.41177c-2.94116,-4.11765 -4.70587,-7.05882 -7.05881,-9.41176c-1.76471,-1.76471 -4.25226,-3.9586 -7.05884,-6.4706c-2.47946,-2.21922 -4.70587,-4.11764 -6.47058,-5.88235c-1.17645,-1.17646 -3.65393,-1.59656 -5.2941,-2.94118c-1.92999,-1.58223 -5.80347,-4.82876 -9.41177,-7.05882c-4.03421,-2.49328 -7.20828,-3.73956 -10.58823,-5.29412c-3.11618,-1.43324 -5.84528,-3.05659 -11.17648,-4.70588c-4.09113,-1.26564 -7.70013,-1.79675 -10.58823,-2.35294c-3.1106,-0.59904 -6.42694,-2.05738 -9.41177,-2.35294c-3.51224,-0.34778 -6.3277,-1.16878 -10,-1.76471c-1.16125,-0.18845 -0.76855,0.26988 0,0.58823c1.63037,0.67533 2.87372,1.25275 3.52942,1.76471c2.70349,2.11085 4.19684,3.4185 5.88235,4.70588c1.4783,1.1291 3.56824,1.69275 4.70587,2.35294c1.83441,1.06454 3.29059,3.24295 4.70587,4.11765c1.58234,0.97795 3.0657,1.59653 4.7059,2.94118c1.28665,1.05481 2.46234,1.58385 3.52942,2.35294c0.67487,0.48641 1.65448,1.29812 2.94116,2.35294c1.6402,1.34464 4.11765,2.35294 5.29413,3.52941c1.17645,1.17647 2.35294,1.17648 2.94116,1.76471c0.58823,0.58823 2.39175,1.1045 3.52942,1.7647c1.83441,1.06454 2.41052,1.66144 3.52942,2.35294c1.00076,0.61849 2.35294,1.17646 2.35294,0.58823c0,-0.58823 -1.89932,-1.01743 -4.70587,-3.52941c-2.47946,-2.21923 -3.93683,-4.81529 -4.7059,-5.88235c-1.45923,-2.0246 -3.83487,-3.26955 -5.2941,-5.29412c-0.7691,-1.06705 -1.17648,-2.35294 -1.17648,-1.76471c0,0.58823 1.39865,-0.35199 5.29413,2.35294c3.77368,2.62038 7.92215,6.92715 11.17645,8.82353c2.73697,1.59491 4.88821,2.55147 6.47058,3.52941c1.41531,0.8747 2.17969,2.55659 3.52942,3.52941c1.06705,0.76909 2.70236,2.65471 4.11765,3.5294c1.58234,0.97795 3.61899,1.90273 4.7059,2.35295c0.76855,0.31834 2.39908,2.22932 4.11765,2.94118c1.21518,0.50336 2.31421,1.26134 3.52939,1.76469c1.71857,0.71185 4.06049,2.48483 5.29413,2.94118c2.27472,0.84146 4.22708,2.17209 5.29413,2.94118c2.02457,1.45923 3.38885,3.77406 5.2941,4.70589c1.67102,0.81726 2.46234,0.99562 3.52942,1.76471c1.34973,0.97282 2.41052,2.24966 3.52942,2.94118c2.50189,1.54626 3.34909,2.62282 4.11765,2.94118c0.54346,0.22511 -0.11963,0.51689 -1.17648,0c-6.02493,-2.9467 -9.27841,-11.28975 -15.2941,-18.23531c-5.18118,-5.98207 -7.32495,-7.91428 -12.35297,-12.35294c-3.11826,-2.75273 -6.26947,-6.68649 -9.41174,-9.41176c-2.22192,-1.92706 -4.36404,-2.59932 -5.29413,-3.52941c-0.93008,-0.93008 -3.03485,-2.12391 -4.70587,-2.94118c-1.90524,-0.93183 -4.29999,-1.375 -5.88235,-2.35294c-1.41531,-0.8747 -3.01944,-0.92323 -5.29413,-1.76471c-1.23361,-0.45635 -4.11765,-1.17647 -5.2941,-1.17647c-1.17648,0 -2.94119,-0.58823 -3.52942,-0.58823c-0.58823,0 -1.76471,0 -2.35294,0c-1.17648,0 -1.6456,-0.35842 -4.7059,-1.17647c-4.01837,-1.07414 -5.27258,-1.2318 -8.23529,-2.35294c-8.17874,-3.09498 -10.18341,-2.89138 -15.2941,-4.70588c-7.43719,-2.6405 -8.78696,-4.21128 -14.7059,-6.47059c-6.43243,-2.45531 -9.41174,-3.52941 -11.76471,-4.11765c-2.35294,-0.58823 -4.07892,-1.84959 -5.2941,-2.35294c-1.71857,-0.71186 -2.98596,-0.95137 -3.52942,-1.17648c-0.76855,-0.31835 -0.99615,-0.85812 -1.76471,-1.17647c-0.54346,-0.22511 -1.17645,0 -1.17645,1.17647c0,1.17648 0,2.94118 0,5.88235c0,3.52941 0,5.29412 0.58823,7.05882c0.58823,1.76471 1.24463,3.50813 1.76471,5.29412c0.6781,2.32862 0.87427,4.01397 1.17645,5.29411c0.13513,0.5725 0.10184,1.67807 0.58826,2.35294c0.7691,1.06705 0.87848,2.86974 1.17645,4.70588c0.28268,1.74192 0.58823,2.94118 0.58823,4.70589c0,1.17647 0.58826,2.94118 0.58826,4.11765c0,1.7647 0.58823,2.35294 0.58823,3.52941c0,1.17647 0.28604,2.24927 0.58823,3.5294c0.40546,1.7175 0,2.94118 0,4.11766c0,1.76469 0.3056,2.96396 0.58826,4.70587c0.29797,1.83615 0.58823,4.11765 0.58823,5.29413c0,2.94116 0,4.70587 0,7.64705c0,2.94118 0,4.70589 0,6.4706c0,1.17647 0,3.5294 0,4.70587c0,1.76471 0,2.94118 0,4.70589c0,1.17647 0,3.52942 0,5.29411c0,1.17647 0,3.52942 0,5.88235c0,1.76471 0,4.70589 0,6.4706c0,1.76469 0,4.11765 0,5.88234c0,2.35295 0,4.11766 0,5.88235c0,1.17647 0,2.35295 0,4.11765c0,0.58824 0,1.17648 0,1.76471c0,0.58824 -0.41595,1.34875 0,1.76471c0.41592,0.41594 1.34879,0.41594 1.76471,0c0.41595,-0.41595 -1.04904,-2.11259 0.58823,-5.29411c0.76132,-1.4794 2.03458,-2.76085 2.35294,-3.52942c0.2251,-0.54346 0.58826,-0.58823 1.76471,-0.58823c1.17648,0 10,0 11.76471,0c2.35294,0 3.93732,-0.26988 4.70587,-0.58824c0.54349,-0.22511 1.17648,0 1.76471,0c1.17648,0 2.94119,0 3.52942,0c0.58823,0 1.17648,0 2.94116,0c1.17648,0 2.35297,0 4.11768,0c0.58823,0 1.17645,0 2.35294,0c1.17645,0 2.35294,0 2.94116,0c1.17648,0 2.35294,0 4.11765,0c0.58823,0 2.35294,0 3.52942,0c1.17648,0 1.76471,0 2.94116,0c1.76471,0 2.94119,0 4.7059,0c1.17645,0 2.35294,0 3.52942,0c1.17645,0 2.94116,0 4.70587,0c1.76471,0 3.52942,0 4.70587,0c1.76471,0 2.35294,0 3.52942,0c0.58823,0 1.76471,0 2.94116,0c0.58826,0 1.76471,0 3.52942,0c1.17648,0 1.76471,0 2.35294,0c0.58826,0 2.35297,0 4.11765,0c1.17648,0 2.35297,0 2.94119,0c2.35294,0 4.12051,-0.05797 4.70587,0c2.98483,0.29556 3.52942,0.58824 4.7059,0.58824c0.58823,0 2.35294,0 4.11765,0c2.35294,0 3.93732,0.26988 4.70587,0.58823c3.26077,1.35065 4.70587,0 5.88235,0c2.94116,0 4.70587,0 5.88235,0c3.52942,0 7.05881,0 8.82352,0c1.76471,0 4.11765,0 5.29413,0c1.76471,0 2.94116,0 3.52942,0c0.58823,0 1.00415,0.41594 0.58823,0c-0.83188,-0.83189 -1.28589,-2.17209 -2.35294,-2.94118c-1.34973,-0.97284 -1.94717,-2.77588 -3.52942,-4.70587c-1.34464,-1.6402 -2.8927,-2.58051 -3.52942,-4.11766c-0.2251,-0.54346 -0.69003,-0.5016 -1.17645,-1.17647c-0.7691,-1.06706 -1.58386,-2.46234 -2.35297,-3.5294c-0.97284,-1.34972 -1.17645,-1.76472 -1.76468,-2.35295c-0.58826,-0.58824 -1.07321,-1.23405 -1.76471,-2.35294c-0.30927,-0.5004 -0.83463,-3.18756 -1.76471,-4.11765c-0.93008,-0.9301 -2.05075,-1.0728 -2.35294,-2.35294c-0.13516,-0.57251 -1.66144,-1.23405 -2.35297,-2.35295c-0.6185,-1.00076 -0.69003,-1.67809 -1.17645,-2.35294c-0.76907,-1.06705 -1.17648,-1.76471 -2.35294,-2.94118c-1.17648,-1.17648 -1.76471,-2.35294 -2.35294,-2.94118c-0.58826,-0.58826 -1.36688,-1.48244 -2.35297,-2.35294c-1.59,-1.40363 -1.76471,-2.35295 -2.35294,-2.94118c-0.58823,-0.58824 -1.28586,-1.58386 -2.35294,-2.35295c-1.34973,-0.97282 -1.59146,-1.38011 -2.94116,-2.35294c-1.06708,-0.7691 -1.59146,-0.79189 -2.94119,-1.76471c-1.06705,-0.76907 -2.01108,-0.2464 -2.94116,-1.17647c-0.93008,-0.93008 -1.76471,-1.17647 -2.94119,-1.76471c-1.17645,-0.58823 -1.99228,-1.71623 -3.52942,-2.35294c-1.08691,-0.45021 -2.39908,-0.46461 -4.11765,-1.17647c-1.21521,-0.50336 -1.81085,-1.05287 -3.52939,-1.76471c-1.21521,-0.50336 -2.38443,-0.90617 -3.52942,-1.17647c-1.28015,-0.3022 -3.12354,-1.375 -4.70587,-2.35294c-1.41531,-0.87471 -2.17264,-1.44637 -2.94119,-1.76471c-1.08691,-0.45023 -1.77991,-0.3998 -2.94116,-0.58824c-1.83615,-0.29796 -2.94119,-1.17648 -4.11765,-1.76471c-1.17648,-0.58824 -1.66104,-0.87427 -2.94119,-1.17647c-1.14502,-0.27029 -2.35294,-0.58823 -3.52942,-1.17647c-1.17645,-0.58823 -2.24927,-1.4625 -3.52939,-1.7647c-1.14502,-0.2703 -2.94119,-1.17647 -4.11768,-1.76471c-1.17645,-0.58823 -2.35294,-0.58824 -3.52939,-1.17647c-1.17648,-0.58824 -2.35294,-0.58823 -3.52942,-1.17647c-1.17648,-0.58824 -1.77991,-0.98803 -2.94116,-1.17648c-1.83615,-0.29797 -3.03076,-0.72624 -4.11768,-1.17647c-0.76855,-0.31835 -1.26602,-0.13801 -2.35294,-0.58823c-0.76855,-0.31835 -0.99612,-0.85812 -1.76471,-1.17648c-1.08691,-0.4502 -1.41882,0.01848 -3.52939,-1.17647c-0.72394,-0.40987 -0.99615,-0.85812 -1.76471,-1.17647c-0.54349,-0.22512 -1.26434,-0.27898 -1.76471,-0.58823c-1.1189,-0.69151 -1.34879,-0.76054 -1.76471,-1.17648c-0.41595,-0.41595 -0.4079,-0.85812 -1.17648,-1.17647c-0.54346,-0.2251 -1.17645,-0.58824 -1.76468,-1.17648c-0.58826,-0.58824 -1.44635,-0.40791 -1.76471,-1.17647c-0.2251,-0.54346 -0.69766,-0.99561 -1.76471,-1.7647c-0.67487,-0.48642 -0.76053,-1.34876 -1.17648,-1.76471c-0.41592,-0.41594 -1.17645,-0.58823 -1.76471,-1.17647c-0.58823,-0.58823 -0.48456,-1.46251 -1.76471,-1.76471c-0.57248,-0.13515 -1.17645,-0.58824 -1.76468,-1.17647c-0.58826,-0.58824 -0.99615,-0.85812 -1.76471,-1.17647c-0.54349,-0.22512 -1.17648,-0.58824 -1.17648,0c0,1.17647 0.58823,2.35294 0.58823,3.52941c0,0.58823 0.44452,1.77351 0.58826,2.94117c0.29633,2.40719 0.58823,2.94118 0.58823,4.11765c0,1.17647 0,1.7647 0,2.94118c0,0.58823 -0.13513,1.1922 0,1.7647c0.30219,1.28014 0.87851,1.69327 1.17648,3.52941c0.18845,1.16128 0.58823,1.76471 0.58823,2.94118c0,0.58823 -0.21561,1.77792 0,3.52941c0.29633,2.40718 0.58823,2.94118 0.58823,3.5294c0,1.17648 0,2.35295 0,2.94118c0,1.17648 0.58823,2.94118 0.58823,3.52942c0,1.76471 0,2.35294 0,2.94118c0,1.76471 0,2.35294 0,2.94118c0,1.76471 0,2.94118 0,4.11765c0,1.76471 0,3.5294 0,4.11765c0,1.17647 0,3.52942 0,4.11765c0,2.35294 0,3.52942 0,4.70589c0,1.17647 0,2.35294 0,3.5294c0,1.76471 0,3.52942 0,4.70589c0,1.17647 0,2.35294 0,3.52942c0,2.35294 0,4.70587 0,5.29411c0,1.76471 0,2.94118 0,3.5294c0,1.17647 0,1.76471 0,2.35295c0,1.17647 0,2.35294 0,3.5294c0,1.76471 -0.26987,2.76085 -0.58823,3.52942c-0.4502,1.08691 -0.58823,2.35294 0,2.35294c0.58823,0 0,-1.17647 0,-1.76471c0,-0.58823 0,-1.17647 0,-2.94118c0,-1.17647 0,-2.35294 0.58823,-2.35294c0.58826,0 1.17648,0 1.76471,0c2.35297,0 5.32452,0.21135 7.64706,0.58824c1.83615,0.29796 4.11765,0.58823 4.70587,0.58823c1.17648,0 1.76471,0 2.94119,0c1.17648,0 2.94116,0 4.70587,0c1.76471,0 2.35294,0 3.52942,0c0.58823,0 1.17648,0 2.35294,0c1.17648,0 2.94119,0 4.11765,0c0.58826,0 1.76471,0 2.35294,0c0.58826,0 2.94119,0 4.11765,0c1.76471,0 3.52942,0 4.7059,0c1.76471,0 4.11765,0 5.2941,0c2.35297,0 2.94119,0 4.7059,0c1.17645,0 2.35294,0 4.11765,0c1.17645,0 2.24927,0.28604 3.52942,0.58824c1.14499,0.27029 2.94116,0 4.70587,0c1.17648,0 2.83749,0.28603 4.11765,0.58823c1.7175,0.40544 2.94116,0 4.11765,0c2.35294,0 2.94119,0 4.70587,0c1.76471,0 2.94119,0 4.7059,0c1.17645,0 1.69327,0.29027 3.52942,0.58824c1.16125,0.18845 2.35294,0 2.94116,0c1.76471,0 2.94116,0 4.11765,0c1.17648,0 2.94116,0 4.11765,0c0.58823,0 1.76471,0 2.35294,0c1.17648,0 2.35294,0 2.94119,0c1.17645,0 1.76471,0 2.94116,0c1.17648,0 2.35294,0 4.11765,0c0.58826,0 1.17645,0.58824 1.76471,0.58824c0.58826,0 -0.56186,-1.49951 -1.17645,-3.52942c-0.34091,-1.12599 -0.31796,-2.38441 -0.58826,-3.52942c-0.6044,-2.56029 -1.86652,-4.03102 -2.35294,-4.70587c-0.76907,-1.06705 -0.3446,-2.10928 -1.17648,-2.94118c-0.41592,-0.41594 -0.58823,-0.58824 -1.17645,-1.17647c-1.17648,-1.17647 -2.62283,-2.17261 -2.94119,-2.94118c-0.45023,-1.08691 -0.58823,-1.17647 -1.17645,-1.76471c-0.58823,-0.58824 -1.17648,-1.76471 -2.35294,-2.94118c-1.17648,-1.17648 -1.17648,-1.76471 -1.76471,-2.35294c-0.58826,-0.58824 -1.17648,-1.17647 -1.76471,-1.76471c-1.17648,-1.17648 -2.08774,-2.91481 -4.11765,-3.52942c-0.56299,-0.17046 -1.76471,-1.17647 -2.35294,-1.76469c-0.58826,-0.58824 -1.76471,-1.76471 -2.94119,-2.35295c-2.35294,-1.17647 -3.9444,-2.55658 -5.2941,-3.5294c-1.06708,-0.7691 -1.72598,-1.26135 -2.94119,-1.76471c-1.71857,-0.71185 -3.52942,-1.76471 -4.70587,-2.35294c-2.35294,-1.17647 -4.07892,-1.84959 -5.29413,-2.35295c-1.71857,-0.71185 -2.99164,-0.83554 -4.11765,-1.17647c-2.02991,-0.61461 -3.5799,-1.4238 -4.70587,-1.76471c-2.02991,-0.61461 -2.86975,-1.46674 -4.7059,-1.76469c-0.58063,-0.09422 -1.69324,-0.87851 -3.52939,-1.17647c-1.74191,-0.28267 -2.35297,-0.58826 -4.11765,-1.17648c-1.76471,-0.58824 -2.95694,-1.04132 -3.52942,-1.17647c-1.28015,-0.3022 -3.12354,-0.78676 -4.7059,-1.76471c-0.70764,-0.43735 -2.23352,-0.73912 -2.94116,-1.17647c-1.58234,-0.97795 -2.31421,-1.26135 -3.52942,-1.76471c-1.71857,-0.71185 -2.95691,-1.04132 -3.52939,-1.17647c-1.28015,-0.3022 -2.46237,-0.99563 -3.52942,-1.7647c-0.67487,-0.48642 -1.76471,-1.17647 -2.35294,-1.17647c-1.17648,0 -2.35297,-0.58824 -3.52942,-1.17648c-1.17648,-0.58824 -1.58438,-1.44635 -2.35294,-1.7647c-0.54349,-0.22512 -0.99615,-0.26988 -1.76471,-0.58823c-1.08691,-0.45023 -1.93701,-0.17229 -2.35294,-0.58823c-0.41595,-0.41595 -1.17648,-1.17647 -2.35297,-1.76471c-1.17645,-0.58823 -3.42572,-2.05074 -4.70587,-2.35294c-0.57248,-0.13515 -1.34875,-0.76052 -1.76471,-1.17647c-0.41592,-0.41594 -1.76471,-1.17649 -1.76471,-0.58823c0,0.58826 1.22125,0.36313 1.76471,0.58823c1.53714,0.6367 1.93698,1.937 2.35294,2.35294c0.41595,0.41596 1.17648,1.17648 3.52942,3.52941c1.17648,1.17648 1.76471,1.7647 1.76471,2.94118c0,1.17647 0.58823,1.7647 0.58823,3.5294c0,1.17647 -0.58823,2.35295 -0.58823,4.70589c0,1.17647 -0.29025,2.28149 -0.58823,4.11765c-0.37689,2.32256 0,3.52942 0,7.05882c0,2.35294 0,3.52942 0,5.29411c0,2.35295 0,2.94118 0,5.29413c0,2.94118 0,3.5294 0,7.05882c0,0.58823 0,1.17647 0,2.35294c0,0.58824 0,2.35294 0,5.88235c0,0.58824 0,1.17647 0,1.76471c0,1.76469 0,2.94118 0,6.47058c0,1.76471 0,2.35294 0,4.11765c0,1.17647 0,1.76471 0,2.94118c0,0.58824 -0.07938,-0.57898 -0.58826,-5.29411c-0.69717,-6.45976 -1.46912,-9.95634 -1.76468,-12.94118c-0.34778,-3.51224 1.90759,-9.41945 -1.76471,-8.82353c-0.58066,0.09422 0.1319,2.88402 0.58823,4.11765c0.84146,2.27472 -0.01849,5.53651 1.17648,7.64706c0.40988,0.72391 0.95135,0.63301 1.17645,1.17647c0.31836,0.76857 0.83463,0.83464 1.76471,1.76471c0.93008,0.93008 1.58438,0.85811 2.35294,1.17647c1.08691,0.45023 1.78046,0.45309 2.35294,0.58824c1.28015,0.3022 1.76471,0.58823 2.94119,0.58823c0.58823,0 2.24927,0.87427 3.52942,1.17647c2.86249,0.67572 5.82813,0.2919 8.23529,0.58824c2.3353,0.28749 3.52939,0.58824 4.70587,0.58824c1.17648,0 3.52942,0 4.70587,0c1.76471,0 2.94119,0 5.29413,0c2.35294,0 4.11765,0 5.88235,0c1.76471,0 3.52942,0 4.70587,0c0.58826,0 1.77991,-0.18845 2.94119,0c1.83615,0.29796 3.42575,0.87427 4.70587,1.17647c1.7175,0.40546 3.52942,0 5.29413,0c1.76471,0 3.56085,-0.27029 4.70587,0c1.28015,0.3022 3.52942,1.17647 5.29413,1.17647c1.17645,0 2.24927,0.28603 3.52939,0.58823c1.14502,0.27029 2.94119,0.58824 3.52942,0.58824c1.76471,0 2.86975,0.87851 4.7059,1.17647c0.58063,0.09422 1.71045,0.88014 4.11765,1.17647c0.58383,0.07187 2.00708,-0.01849 4.11765,1.17648c0.72391,0.40987 2.77176,1.75389 5.88235,2.35294c0.57761,0.11124 1.40402,1.12801 2.94116,1.76471c0.54346,0.2251 1.40405,1.12799 2.94119,1.76469c0.54346,0.2251 1.28586,0.40738 2.35294,1.17648c0.67487,0.4864 1.12137,2.29211 1.76471,1.76469c1.64017,-1.34467 -0.6499,-3.17386 -2.94119,-7.64705c-0.96692,-1.88766 -2.47461,-2.83096 -3.52942,-4.11765c-1.34464,-1.64018 -2.94116,-3.52942 -3.52939,-4.11765c-1.17648,-1.17648 -1.65451,-1.88635 -2.94119,-2.94118c-1.6402,-1.34464 -3.36853,-3.70213 -5.88235,-5.88235c-2.22192,-1.92706 -4.11765,-3.52942 -6.47058,-5.88235c-1.76471,-1.76471 -2.94116,-2.94118 -4.70587,-4.11765c-1.76471,-1.17647 -3.91525,-3.17001 -5.88235,-4.70589c-2.70352,-2.11086 -4.7059,-2.94118 -5.88235,-3.5294c-1.17648,-0.58824 -2.28323,-1.87663 -4.11765,-2.94118c-1.13766,-0.6602 -3.38889,-1.42113 -5.29413,-2.35295c-1.67102,-0.81726 -2.67596,-1.73833 -4.70587,-2.35294c-1.12601,-0.34093 -1.84296,-0.33501 -4.11765,-1.17647c-1.23364,-0.45636 -2.36813,-0.98802 -3.52942,-1.17647c-1.83615,-0.29797 -2.98734,-1.05287 -4.70587,-1.76471c-1.21521,-0.50336 -2.31424,-0.67311 -3.52942,-1.17647c-1.71857,-0.71185 -2.76086,-0.85812 -3.52942,-1.17647c-1.63037,-0.67532 -3.49066,-0.67313 -4.70587,-1.17648c-1.71857,-0.71185 -3.93732,-0.85811 -4.7059,-1.17647c-1.08691,-0.4502 -2.31421,-0.08487 -3.52939,-0.58823c-1.71857,-0.71185 -2.38443,-0.31795 -3.52942,-0.58824c-1.28015,-0.3022 -2.35294,-1.17647 -3.52942,-1.17647c-0.58823,0 -1.76471,-0.58824 -3.52942,-0.58824c-0.58823,0 -1.53961,-0.54347 -1.76471,0c-0.31836,0.76859 0.88092,4.66223 1.17648,7.64706c0.23184,2.34149 0.39978,4.13284 0.58823,5.29411c0.29797,1.83615 0.58826,2.94118 0.58826,4.11765c0,1.76471 -0.27029,2.97264 0,4.11765c0.30219,1.28015 0.58823,2.35295 0.58823,2.94118c0,1.17647 0,4.11765 0,5.29413c0,1.76469 -0.2251,2.98593 0,3.5294c0.31836,0.76857 0.138,1.85426 0.58823,2.94118c0.31836,0.76859 0.79959,-0.62401 0,-4.70589c-0.46625,-2.38011 -0.49234,-3.54239 -1.17645,-8.23529c-0.51614,-3.54066 -0.58826,-4.70589 -0.58826,-6.47058c0,-2.35295 -0.65961,-4.17082 0,-8.23531c0.29797,-1.83614 0.13806,-2.44249 0.58826,-3.5294c0.31836,-0.76857 1.32733,-0.70766 1.76471,0c0.97797,1.58235 3.02603,7.60832 3.52939,8.82353c0.71185,1.71857 0.78351,3.66432 1.76471,5.88235c0.85803,1.93961 2.05496,4.0462 2.35294,5.88234c0.18845,1.16129 0.1828,2.40016 0.58826,4.11766c0.30219,1.28014 1.17645,2.94116 1.17645,4.11765c0,1.17647 -0.18033,3.25954 0.58826,2.94118c1.63037,-0.67534 -0.58826,-5.29413 -0.58826,-11.17648c0,-5.88234 0,-9.41176 0,-12.35294c0,-2.35294 0,-3.5294 0,-4.70589c0,-0.58823 -1.08691,-1.90271 0,-2.35294c0.76859,-0.31836 1.28873,1.73807 2.35294,6.4706c0.65805,2.92635 0.67514,5.26083 1.76471,8.23529c0.63983,1.74667 0.37265,5.30733 0.58826,7.05882c0.29633,2.40718 0.90616,4.73735 1.17645,5.88235c0.6044,2.56029 0.50116,3.0755 1.17648,4.70587c0.31836,0.76857 1.17645,1.76471 1.17645,1.17648c0,-4.70589 0,-8.23531 0,-12.35295c0,-4.11765 0,-7.64705 0,-10c0,-1.76471 0,-3.5294 0,-4.70587c0,-1.17648 0.08786,-2.07397 0.58826,-1.76471c1.1189,0.69151 1.3725,2.27391 1.76468,3.5294c1.2402,3.97026 1.74857,8.61618 2.35297,11.17647c0.54059,2.29001 0.69901,4.67274 1.17645,6.4706c0.76987,2.89894 1.17648,4.11765 1.17648,4.70589c0,0.58823 0,0 0,-3.52942c0,-6.47058 0,-12.35294 0,-15.29411c0,-1.76471 0,-3.52942 0,-4.11765c0,-0.58824 0.1319,-1.23363 0.58823,0c0.84146,2.2747 1.76471,6.47058 1.76471,10c0,2.94118 0,6.47058 0,8.82352c0,1.76471 -0.53067,4.60262 0.58823,5.29413c0.5004,0.30927 -0.58054,-1.0336 -1.17645,-4.70589c-0.56534,-3.48383 -1.46838,-10.53398 -1.76471,-12.94118c-0.21561,-1.7515 -1.67517,-4.25566 -0.58823,-4.70589c3.07428,-1.27339 3.16501,3.39005 5.2941,7.05884c1.3204,2.27528 2.23273,5.93596 4.11765,9.99998c0.55344,1.19325 2.01111,2.50388 2.94119,5.29413c0.186,0.55804 0.58823,0.58823 0.58823,-1.17647c0,-3.52942 0,-5.88235 0,-13.52942c0,-3.5294 -0.58823,-5.88235 -0.58823,-7.05882c0,-0.58824 -0.11734,1.79509 1.76471,8.82353c2.21542,8.27335 4.11188,11.64133 4.70587,15.88235c0.08157,0.58253 0,1.76469 0.58823,1.76469c0.58823,0 0,-2.94116 0,-9.41176c0,-4.11765 0.57742,-7.47765 1.17648,-10.58823c0.22247,-1.15526 0.48508,-0.55217 1.76471,2.94116c2.17914,5.94893 2.94119,11.17648 4.11765,14.70589c0.58823,1.76471 0.17227,3.11346 0.58823,3.52942c0.41592,0.41594 0.29633,-1.71046 0,-4.11765c-0.64685,-5.25447 -0.58823,-10.58824 -0.58823,-15.88235c0,-2.94118 -0.07196,-4.07881 0.58823,-2.94118c1.06454,1.83441 3.04144,5.83891 5.29413,11.17647c1.23172,2.91846 2.6228,5.11378 2.94116,5.88235c0.2251,0.54346 0,-0.58824 0,-2.35295c0,-4.70587 0,-9.41176 0,-11.17647c0,-0.58823 0.55075,2.95389 1.76471,6.4706c2.85342,8.2661 4.76346,14.6026 5.88235,15.29411c0.50037,0.30925 0.76212,-2.36153 0.58823,-4.11765c-0.29556,-2.98483 -1.13168,-4.48077 -0.58823,-4.70589c0.76855,-0.31834 2.5354,4.54059 4.11765,6.4706c1.34464,1.64018 1.17648,0 1.17648,-0.58824c0,-0.58824 0.58823,-0.58824 1.17645,-0.58824c0.58823,0 0.76053,0.41595 1.17648,0c0.41592,-0.41594 1.17645,0 1.76471,0l0.58823,0l0.58823,0.58824l0.58823,0" id="svg_29" stroke-width="13" stroke="#000" fill="none"/>
  <path d="m486.47055,158.82352c0.58826,0 1.22125,0.36314 1.76471,0.58824c1.53714,0.6367 1.88922,1.00829 3.52942,2.35294c0.64334,0.5274 1.07281,0.87427 2.35294,1.17647c0.57248,0.13515 1.17648,0.58824 1.76471,0.58824c0.58823,0 1.87411,0.40739 2.94116,1.17647c0.6749,0.48642 1.17648,0.58824 1.76471,0.58824c0.58826,0 1.19223,-0.13515 1.76471,0c1.28015,0.3022 2.24927,0.87427 3.52942,1.17647c0.57248,0.13515 1.17648,0 1.76471,0c1.17645,0 1.76471,0.58823 2.94116,0.58823c1.17648,0 1.58435,0.26988 2.35297,0.58824c0.5434,0.22508 1.34875,-0.41595 1.76471,0c0.41595,0.41595 0.5882,0.58824 1.17645,0.58824c0.58826,0 0.7605,0.17229 1.17645,0.58823c0.41595,0.41595 1.17651,0 1.76471,0l0.58826,0l0.5882,0.58824l0.58826,0" id="svg_30" stroke-width="13" stroke="#000" fill="none"/>
 </g>
</svg>