<svg width="600" height="600" xmlns="http://www.w3.org/2000/svg">
 <title>oktas-6</title>

 <g>
  <title>Layer 1</title>
  <ellipse stroke-width="13" ry="290" rx="290" id="svg_1" cy="300" cx="301.875" stroke="#000" fill="#fff"/>
  <line id="svg_5" y2="15" x2="300" y1="595" x1="300" stroke-width="13" stroke="#000" fill="none"/>
  <line fill="none" stroke="#000" stroke-width="13" x1="7" y1="300" x2="588" y2="300" id="svg_2"/>
  <line fill="none" stroke="#000" stroke-width="13" x1="305.625" y1="21.87505" x2="383.00003" y2="21.87505" id="svg_15"/>
  <line fill="none" stroke="#000" stroke-width="13" x1="305.62499" y1="198.75002" x2="569.87499" y2="198.75002" id="svg_32"/>
  <line fill="none" stroke="#000" stroke-width="13" x1="303.74999" y1="221.87501" x2="576.125" y2="221.87501" id="svg_34"/>
  <g id="svg_37">
   <line fill="none" stroke="#000" stroke-width="13" x1="301.875" y1="289.375" x2="589.875" y2="289.375" id="svg_10"/>
   <line fill="none" stroke="#000" stroke-width="13" x1="299.375" y1="276.875" x2="587.375" y2="276.875" id="svg_11"/>
   <line fill="none" stroke="#000" stroke-width="13" x1="301.875" y1="266.25001" x2="585.5" y2="266.25001" id="svg_12"/>
   <line fill="none" stroke="#000" stroke-width="13" x1="304.375" y1="255.625" x2="582.99997" y2="255.625" id="svg_13"/>
   <line fill="none" stroke="#000" stroke-width="13" x1="303.125" y1="244.37501" x2="581.74997" y2="244.37501" id="svg_14"/>
   <line fill="none" stroke="#000" stroke-width="13" x1="306.25" y1="33.12505" x2="409.25003" y2="33.12505" id="svg_16"/>
   <line fill="none" stroke="#000" stroke-width="13" x1="305.62499" y1="44.37505" x2="434.25003" y2="44.37505" id="svg_17"/>
   <line fill="none" stroke="#000" stroke-width="13" x1="306.25" y1="56.25004" x2="456.12503" y2="56.25004" id="svg_18"/>
   <line fill="none" stroke="#000" stroke-width="13" x1="305.62498" y1="68.12504" x2="471.12501" y2="68.12504" id="svg_19"/>
   <line fill="none" stroke="#000" stroke-width="13" x1="306.25" y1="23.75005" x2="383.62503" y2="23.75005" id="svg_20"/>
   <line fill="none" stroke="#000" stroke-width="13" x1="305.62498" y1="78.75004" x2="485.5" y2="78.75004" id="svg_21"/>
   <line fill="none" stroke="#000" stroke-width="13" x1="305.62498" y1="90.62504" x2="497.375" y2="90.62504" id="svg_22"/>
   <line fill="none" stroke="#000" stroke-width="13" x1="305.62501" y1="100.62504" x2="510.50002" y2="100.62504" id="svg_23"/>
   <line fill="none" stroke="#000" stroke-width="13" x1="305.62502" y1="113.12503" x2="519.87504" y2="113.12503" id="svg_24"/>
   <line fill="none" stroke="#000" stroke-width="13" x1="305.625" y1="123.75003" x2="529.25002" y2="123.75003" id="svg_25"/>
   <line fill="none" stroke="#000" stroke-width="13" x1="306.25" y1="134.37503" x2="536.75002" y2="134.37503" id="svg_26"/>
   <line fill="none" stroke="#000" stroke-width="13" x1="305.62501" y1="145.62503" x2="544.87502" y2="145.62503" id="svg_27"/>
   <line fill="none" stroke="#000" stroke-width="13" x1="306.25" y1="155.62503" x2="551.12501" y2="155.62503" id="svg_28"/>
   <line fill="none" stroke="#000" stroke-width="13" x1="306.24998" y1="166.87502" x2="556.12498" y2="166.87502" id="svg_29"/>
   <line fill="none" stroke="#000" stroke-width="13" x1="305.62497" y1="177.50002" x2="561.12497" y2="177.50002" id="svg_30"/>
   <line fill="none" stroke="#000" stroke-width="13" x1="305" y1="189.37502" x2="564.25001" y2="189.37502" id="svg_31"/>
   <line fill="none" stroke="#000" stroke-width="36" x1="304.37497" y1="209.37501" x2="574.24997" y2="209.37501" id="svg_33"/>
   <line fill="none" stroke="#000" stroke-width="13" x1="304.37502" y1="233.75001" x2="580.50003" y2="233.75001" id="svg_35"/>
  </g>
  <g transform="rotate(90, 445.25, 443.438)" id="svg_61">
   <line fill="none" stroke="#000" stroke-width="13" x1="302.50001" y1="576.24995" x2="590.50001" y2="576.24995" id="svg_38"/>
   <line fill="none" stroke="#000" stroke-width="13" x1="300.00001" y1="563.74995" x2="588.00001" y2="563.74995" id="svg_39"/>
   <line fill="none" stroke="#000" stroke-width="13" x1="302.50001" y1="553.12495" x2="586.12501" y2="553.12495" id="svg_40"/>
   <line fill="none" stroke="#000" stroke-width="13" x1="305.00001" y1="542.49995" x2="583.62498" y2="542.49995" id="svg_41"/>
   <line fill="none" stroke="#000" stroke-width="13" x1="303.75001" y1="531.24995" x2="582.37498" y2="531.24995" id="svg_42"/>
   <line fill="none" stroke="#000" stroke-width="13" x1="306.87501" y1="320" x2="409.87504" y2="320" id="svg_43"/>
   <line fill="none" stroke="#000" stroke-width="13" x1="306.25" y1="331.24999" x2="434.87503" y2="331.24999" id="svg_44"/>
   <line fill="none" stroke="#000" stroke-width="13" x1="306.87501" y1="343.12499" x2="456.75004" y2="343.12499" id="svg_45"/>
   <line fill="none" stroke="#000" stroke-width="13" x1="306.24999" y1="354.99999" x2="471.75002" y2="354.99999" id="svg_46"/>
   <line fill="none" stroke="#000" stroke-width="13" x1="306.875" y1="310.625" x2="384.25004" y2="310.625" id="svg_47"/>
   <line fill="none" stroke="#000" stroke-width="13" x1="306.24999" y1="365.62499" x2="486.12501" y2="365.62499" id="svg_48"/>
   <line fill="none" stroke="#000" stroke-width="13" x1="306.24999" y1="377.49998" x2="498.00001" y2="377.49998" id="svg_49"/>
   <line fill="none" stroke="#000" stroke-width="13" x1="306.25001" y1="387.49998" x2="511.12503" y2="387.49998" id="svg_50"/>
   <line fill="none" stroke="#000" stroke-width="13" x1="306.25003" y1="399.99998" x2="520.50004" y2="399.99998" id="svg_51"/>
   <line fill="none" stroke="#000" stroke-width="13" x1="306.25001" y1="410.62498" x2="529.87503" y2="410.62498" id="svg_52"/>
   <line fill="none" stroke="#000" stroke-width="13" x1="306.875" y1="421.24998" x2="537.37503" y2="421.24998" id="svg_53"/>
   <line fill="none" stroke="#000" stroke-width="13" x1="306.25002" y1="432.49998" x2="545.50003" y2="432.49998" id="svg_54"/>
   <line fill="none" stroke="#000" stroke-width="13" x1="306.87501" y1="442.49997" x2="551.75002" y2="442.49997" id="svg_55"/>
   <line fill="none" stroke="#000" stroke-width="13" x1="306.87499" y1="453.74997" x2="556.74999" y2="453.74997" id="svg_56"/>
   <line fill="none" stroke="#000" stroke-width="13" x1="306.24998" y1="464.37497" x2="561.74998" y2="464.37497" id="svg_57"/>
   <line fill="none" stroke="#000" stroke-width="13" x1="305.62501" y1="476.24997" x2="564.87501" y2="476.24997" id="svg_58"/>
   <line fill="none" stroke="#000" stroke-width="36" x1="304.99997" y1="496.24996" x2="574.87497" y2="496.24996" id="svg_59"/>
   <line fill="none" stroke="#000" stroke-width="13" x1="305.00003" y1="520.62496" x2="581.12503" y2="520.62496" id="svg_60"/>
  </g>
  <line id="svg_62" y2="320.62489" x2="588.12484" y1="303.74989" x1="585.62484" stroke-width="13" stroke="#000" fill="none"/>
  <line id="svg_63" y2="578.74984" x2="376.24988" y1="296.87489" x1="377" stroke-width="13" stroke="#000" fill="none"/>
  <g transform="rotate(180, 155.875, 444.062)" id="svg_87">
   <line fill="none" stroke="#000" stroke-width="13" x1="13.12507" y1="576.87495" x2="301.12507" y2="576.87495" id="svg_64"/>
   <line fill="none" stroke="#000" stroke-width="13" x1="10.62507" y1="564.37495" x2="298.62507" y2="564.37495" id="svg_65"/>
   <line fill="none" stroke="#000" stroke-width="13" x1="13.12507" y1="553.74995" x2="296.75007" y2="553.74995" id="svg_66"/>
   <line fill="none" stroke="#000" stroke-width="13" x1="15.62507" y1="543.12495" x2="294.25004" y2="543.12495" id="svg_67"/>
   <line fill="none" stroke="#000" stroke-width="13" x1="14.37507" y1="531.87495" x2="293.00004" y2="531.87495" id="svg_68"/>
   <line fill="none" stroke="#000" stroke-width="13" x1="17.50007" y1="320.625" x2="120.5001" y2="320.625" id="svg_69"/>
   <line fill="none" stroke="#000" stroke-width="13" x1="16.87506" y1="331.87499" x2="145.50009" y2="331.87499" id="svg_70"/>
   <line fill="none" stroke="#000" stroke-width="13" x1="17.50007" y1="343.74999" x2="167.3751" y2="343.74999" id="svg_71"/>
   <line fill="none" stroke="#000" stroke-width="13" x1="16.87505" y1="355.62499" x2="182.37508" y2="355.62499" id="svg_72"/>
   <line fill="none" stroke="#000" stroke-width="13" x1="17.50006" y1="311.25" x2="94.8751" y2="311.25" id="svg_73"/>
   <line fill="none" stroke="#000" stroke-width="13" x1="16.87505" y1="366.24999" x2="196.75007" y2="366.24999" id="svg_74"/>
   <line fill="none" stroke="#000" stroke-width="13" x1="16.87505" y1="378.12498" x2="208.62507" y2="378.12498" id="svg_75"/>
   <line fill="none" stroke="#000" stroke-width="13" x1="16.87507" y1="388.12498" x2="221.75009" y2="388.12498" id="svg_76"/>
   <line fill="none" stroke="#000" stroke-width="13" x1="16.87509" y1="400.62498" x2="231.1251" y2="400.62498" id="svg_77"/>
   <line fill="none" stroke="#000" stroke-width="13" x1="16.87507" y1="411.24998" x2="240.50009" y2="411.24998" id="svg_78"/>
   <line fill="none" stroke="#000" stroke-width="13" x1="17.50006" y1="421.87498" x2="248.00009" y2="421.87498" id="svg_79"/>
   <line fill="none" stroke="#000" stroke-width="13" x1="16.87508" y1="433.12498" x2="256.12509" y2="433.12498" id="svg_80"/>
   <line fill="none" stroke="#000" stroke-width="13" x1="17.50007" y1="443.12497" x2="262.37508" y2="443.12497" id="svg_81"/>
   <line fill="none" stroke="#000" stroke-width="13" x1="17.50005" y1="454.37497" x2="267.37505" y2="454.37497" id="svg_82"/>
   <line fill="none" stroke="#000" stroke-width="13" x1="16.87504" y1="464.99997" x2="272.37504" y2="464.99997" id="svg_83"/>
   <line fill="none" stroke="#000" stroke-width="13" x1="16.25007" y1="476.87496" x2="275.50007" y2="476.87496" id="svg_84"/>
   <line fill="none" stroke="#000" stroke-width="36" x1="15.62503" y1="496.87496" x2="285.50003" y2="496.87496" id="svg_85"/>
   <line fill="none" stroke="#000" stroke-width="13" x1="15.62509" y1="521.24996" x2="291.75009" y2="521.24996" id="svg_86"/>
  </g>
  <line id="svg_88" y2="373.74988" x2="299.99989" y1="373.12488" x1="24.37495" stroke-width="13" stroke="#000" fill="none"/>
  <path d="m531.87488,451.87485c0.625,0 1.37927,-0.5079 2.5,-1.875c1.42865,-1.74268 3.125,-4.37497 4.375,-5.62497c1.25,-1.25 1.57513,-2.0773 2.5,-3.125c1.49133,-1.68936 3.12494,-2.5 4.37494,-3.75c0.625,-0.625 1.25,-1.875 1.875,-2.5c0.625,-0.625 1.06891,-1.27682 1.25,-1.875c0.65302,-2.15677 2.44849,-2.11679 3.125,-3.75c0.2392,-0.57742 0.43286,-1.99124 1.25,-3.125c0.51685,-0.71704 1.0108,-1.92258 1.25,-2.5c0.67651,-1.63321 1.25,-2.5 1.875,-3.75c0.625,-1.25 0.80804,-2.05804 1.25,-2.5c0.44196,-0.44196 0.74298,-0.88455 1.25,-1.25c1.60333,-1.15564 1.84698,-2.84323 2.5,-5c0.18109,-0.59818 0,-1.25 0.625,-2.5c0.625,-1.25 -0.09253,-2.01773 0.625,-3.75c0.33826,-0.81659 0.91174,-1.68341 1.25,-2.5c0.2392,-0.57742 0.625,-1.25 1.25,-2.5c0.625,-1.25 1.55389,-1.76483 1.875,-3.125c0.14362,-0.60828 0.3858,-1.92258 0.625,-2.5c0.67651,-1.63321 1.25,-3.125 1.875,-4.375c0.625,-1.25 1.55389,-3.63983 1.875,-5c0.5744,-2.43314 0.21576,-4.4856 1.25,-7.5c0.9071,-2.6438 1.96735,-4.96463 3.125,-8.125c0.67981,-1.85583 1.19519,-5.01917 1.875,-6.875c1.15765,-3.16037 2.03534,-4.87314 2.5,-5.625c1.03906,-1.68124 0.83594,-3.31876 1.875,-5c0.46466,-0.75186 0.47229,-2.50937 0.625,-3.75c0.31488,-2.55765 1.56097,-4.95361 1.875,-8.125c0.18475,-1.86588 -0.30035,-4.3992 0,-6.25c0.31659,-1.9509 0.625,-3.75 0.625,-4.375c0,-2.5 0,-3.125 0,-3.75c0,-0.625 0,-1.25 0.625,-1.875l0,-1.25l0,-1.25l0,-0.625" id="svg_89" stroke-width="13" stroke="#000" fill="none"/>
  <path d="m391.87488,29.37493c0.625,0 1.875,0 3.125,0.625c2.5,1.25 4.44186,1.30062 6.875,1.875c1.36017,0.32109 2.5,0.625 4.375,1.25c1.875,0.625 3.06735,1.56014 5.625,1.875c1.24063,0.15273 1.76483,0.92891 3.125,1.25c0.60828,0.1436 1.68341,0.91175 2.5,1.25c0.57742,0.23918 1.89172,0.4814 2.5,0.625c1.36017,0.32109 2.37314,1.41032 3.125,1.875c1.68124,1.03907 2.17142,0.71834 2.5,1.25c0.73474,1.18882 3.22015,0.77164 4.375,1.25c0.81659,0.33825 1.27682,1.06889 1.875,1.25c2.15677,0.65302 3.125,1.875 3.75,1.875l1.875,1.25l0,0.625l0.625,0" id="svg_90" stroke-width="13" stroke="#000" fill="none"/>
 </g>
</svg>