<svg width="600" height="600" xmlns="http://www.w3.org/2000/svg">
 <title>oktas-4</title>

 <g>
  <title>Layer 1</title>
  <ellipse fill="#fff" stroke="#000" cx="301.875" cy="300" id="svg_1" rx="290" ry="290" stroke-width="13"/>
  <line fill="none" stroke="#000" stroke-width="13" x1="300" y1="595" x2="300" y2="15" id="svg_5"/>
  <line id="svg_2" y2="300" x2="588" y1="300" x1="300" stroke-width="13" stroke="#000" fill="none"/>
  <line id="svg_15" y2="21.87505" x2="383.00003" y1="21.87505" x1="305.625" stroke-width="13" stroke="#000" fill="none"/>
  <line id="svg_32" y2="198.75002" x2="569.87499" y1="198.75002" x1="305.62499" stroke-width="13" stroke="#000" fill="none"/>
  <line id="svg_34" y2="221.87501" x2="576.125" y1="221.87501" x1="303.74999" stroke-width="13" stroke="#000" fill="none"/>
  <g id="svg_37">
   <line id="svg_10" y2="289.375" x2="589.875" y1="289.375" x1="301.875" stroke-width="13" stroke="#000" fill="none"/>
   <line id="svg_11" y2="276.875" x2="587.375" y1="276.875" x1="299.375" stroke-width="13" stroke="#000" fill="none"/>
   <line id="svg_12" y2="266.25001" x2="585.5" y1="266.25001" x1="301.875" stroke-width="13" stroke="#000" fill="none"/>
   <line id="svg_13" y2="255.625" x2="582.99997" y1="255.625" x1="304.375" stroke-width="13" stroke="#000" fill="none"/>
   <line id="svg_14" y2="244.37501" x2="581.74997" y1="244.37501" x1="303.125" stroke-width="13" stroke="#000" fill="none"/>
   <line id="svg_16" y2="33.12505" x2="409.25003" y1="33.12505" x1="306.25" stroke-width="13" stroke="#000" fill="none"/>
   <line id="svg_17" y2="44.37505" x2="434.25003" y1="44.37505" x1="305.62499" stroke-width="13" stroke="#000" fill="none"/>
   <line id="svg_18" y2="56.25004" x2="456.12503" y1="56.25004" x1="306.25" stroke-width="13" stroke="#000" fill="none"/>
   <line id="svg_19" y2="68.12504" x2="471.12501" y1="68.12504" x1="305.62498" stroke-width="13" stroke="#000" fill="none"/>
   <line id="svg_20" y2="23.75005" x2="383.62503" y1="23.75005" x1="306.25" stroke-width="13" stroke="#000" fill="none"/>
   <line id="svg_21" y2="78.75004" x2="485.5" y1="78.75004" x1="305.62498" stroke-width="13" stroke="#000" fill="none"/>
   <line id="svg_22" y2="90.62504" x2="497.375" y1="90.62504" x1="305.62498" stroke-width="13" stroke="#000" fill="none"/>
   <line id="svg_23" y2="100.62504" x2="510.50002" y1="100.62504" x1="305.62501" stroke-width="13" stroke="#000" fill="none"/>
   <line id="svg_24" y2="113.12503" x2="519.87504" y1="113.12503" x1="305.62502" stroke-width="13" stroke="#000" fill="none"/>
   <line id="svg_25" y2="123.75003" x2="529.25002" y1="123.75003" x1="305.625" stroke-width="13" stroke="#000" fill="none"/>
   <line id="svg_26" y2="134.37503" x2="536.75002" y1="134.37503" x1="306.25" stroke-width="13" stroke="#000" fill="none"/>
   <line id="svg_27" y2="145.62503" x2="544.87502" y1="145.62503" x1="305.62501" stroke-width="13" stroke="#000" fill="none"/>
   <line id="svg_28" y2="155.62503" x2="551.12501" y1="155.62503" x1="306.25" stroke-width="13" stroke="#000" fill="none"/>
   <line id="svg_29" y2="166.87502" x2="556.12498" y1="166.87502" x1="306.24998" stroke-width="13" stroke="#000" fill="none"/>
   <line id="svg_30" y2="177.50002" x2="561.12497" y1="177.50002" x1="305.62497" stroke-width="13" stroke="#000" fill="none"/>
   <line id="svg_31" y2="189.37502" x2="564.25001" y1="189.37502" x1="305" stroke-width="13" stroke="#000" fill="none"/>
   <line id="svg_33" y2="209.37501" x2="574.24997" y1="209.37501" x1="304.37497" stroke-width="36" stroke="#000" fill="none"/>
   <line id="svg_35" y2="233.75001" x2="580.50003" y1="233.75001" x1="304.37502" stroke-width="13" stroke="#000" fill="none"/>
  </g>
  <g id="svg_61" transform="rotate(90, 445.25, 444.688)">
   <line id="svg_38" y2="577.49995" x2="590.50001" y1="577.49995" x1="302.50001" stroke-width="13" stroke="#000" fill="none"/>
   <line id="svg_39" y2="564.99995" x2="588.00001" y1="564.99995" x1="300.00001" stroke-width="13" stroke="#000" fill="none"/>
   <line id="svg_40" y2="554.37495" x2="586.12501" y1="554.37495" x1="302.50001" stroke-width="13" stroke="#000" fill="none"/>
   <line id="svg_41" y2="543.74995" x2="583.62498" y1="543.74995" x1="305.00001" stroke-width="13" stroke="#000" fill="none"/>
   <line id="svg_42" y2="532.49995" x2="582.37498" y1="532.49995" x1="303.75001" stroke-width="13" stroke="#000" fill="none"/>
   <line id="svg_43" y2="321.25" x2="409.87503" y1="321.25" x1="306.87501" stroke-width="13" stroke="#000" fill="none"/>
   <line id="svg_44" y2="332.49999" x2="434.87503" y1="332.49999" x1="306.24999" stroke-width="13" stroke="#000" fill="none"/>
   <line id="svg_45" y2="344.37499" x2="456.75004" y1="344.37499" x1="306.87501" stroke-width="13" stroke="#000" fill="none"/>
   <line id="svg_46" y2="356.24999" x2="471.75002" y1="356.24999" x1="306.24999" stroke-width="13" stroke="#000" fill="none"/>
   <line id="svg_47" y2="311.875" x2="384.25004" y1="311.875" x1="306.875" stroke-width="13" stroke="#000" fill="none"/>
   <line id="svg_48" y2="366.87499" x2="486.12501" y1="366.87499" x1="306.24999" stroke-width="13" stroke="#000" fill="none"/>
   <line id="svg_49" y2="378.74998" x2="498" y1="378.74998" x1="306.24999" stroke-width="13" stroke="#000" fill="none"/>
   <line id="svg_50" y2="388.74998" x2="511.12503" y1="388.74998" x1="306.25001" stroke-width="13" stroke="#000" fill="none"/>
   <line id="svg_51" y2="401.24998" x2="520.50004" y1="401.24998" x1="306.25002" stroke-width="13" stroke="#000" fill="none"/>
   <line id="svg_52" y2="411.87498" x2="529.87503" y1="411.87498" x1="306.25001" stroke-width="13" stroke="#000" fill="none"/>
   <line id="svg_53" y2="422.49998" x2="537.37503" y1="422.49998" x1="306.875" stroke-width="13" stroke="#000" fill="none"/>
   <line id="svg_54" y2="433.74998" x2="545.50003" y1="433.74998" x1="306.25002" stroke-width="13" stroke="#000" fill="none"/>
   <line id="svg_55" y2="443.74997" x2="551.75002" y1="443.74997" x1="306.87501" stroke-width="13" stroke="#000" fill="none"/>
   <line id="svg_56" y2="454.99997" x2="556.74999" y1="454.99997" x1="306.87499" stroke-width="13" stroke="#000" fill="none"/>
   <line id="svg_57" y2="465.62497" x2="561.74998" y1="465.62497" x1="306.24998" stroke-width="13" stroke="#000" fill="none"/>
   <line id="svg_58" y2="477.49996" x2="564.87501" y1="477.49996" x1="305.62501" stroke-width="13" stroke="#000" fill="none"/>
   <line id="svg_59" y2="497.49996" x2="574.87497" y1="497.49996" x1="304.99997" stroke-width="36" stroke="#000" fill="none"/>
   <line id="svg_60" y2="521.87496" x2="581.12503" y1="521.87496" x1="305.00002" stroke-width="13" stroke="#000" fill="none"/>
  </g>
  <line fill="none" stroke="#000" stroke-width="13" x1="585.62484" y1="303.74989" x2="588.12484" y2="320.62489" id="svg_62"/>
  <line fill="none" stroke="#000" stroke-width="13" x1="377" y1="296.87489" x2="376.24988" y2="578.74984" id="svg_63"/>
  <path d="m309,26c0,-1 -1.29291,-1.70711 -2,-1c-0.70709,0.70711 0,3 0,5c0,2 0,5 0,7c0,5 0,7 0,10c0,3 0,6 0,8c0,1 1,3 1,4c0,2 -0.22977,3.02675 0,4c0.51373,2.17625 1,5 1,7c0,1 0,2 0,4c0,2 0,5 0,8c0,4 0,7 0,10c0,3 0,4 0,7c0,2 0,5 0,7c0,3 0,6 0,9c0,3 0,5 0,8c0,4 0,8 0,11c0,3 0,7 0,11c0,3 0,7 0,8c0,2 0,6 0,8c0,3 0,5 0,7c0,2 0,3 0,4c0,1 0,3 0,4c0,2 0,3 0,4c0,2 0,5 0,8l0,1l0,1" id="svg_4" stroke-width="13" stroke="#000" fill="none"/>
  <path d="m419,311c0,-1 0,-4 0,-6c0,-1 -1,-1 0,-1c1,0 3.87857,1.49347 7,2c3.94836,0.64072 5.82376,0.48627 8,1c1.9465,0.4595 3,0 4,0c1,0 2,0 3,0c2,0 4,0 6,0c2,0 6,0 7,0c1,0 3,0 5,0c3,0 4,-1 6,-1c3,0 4,0 5,0c1,0 3,0 5,0c2,0 3.01498,0.24435 5,0c4.09222,-0.50378 7,-1 9,-1c2,0 3.02676,0.22977 4,0c2.17624,-0.51373 4,-1 6,-1c3,0 3.82376,-0.48627 6,-1c0.97324,-0.22977 3,-1 5,-1c2,0 4,0 7,0c2,0 5,0 8,0c3,0 5,0 8,0c2,0 3,0 5,0c2,0 3,0 4,0c2,0 3,0 4,0c1,0 2,0 3,0c1,0 3.07611,-0.38269 4,0c1.30658,0.5412 3,1 4,1c2,0 3,0 4,0c1,0 1.69342,0.4588 3,1c0.92389,0.38269 2,0 3,0c1,0 2,0 3,0c2,0 3,0 5,0c1,0 3,1 3,0c0,-1 -1,1 -2,1c-2,0 -3,1 -5,1c-1,0 -2,0 -3,0c-1,0 0,0 1,0c1,0 2,0 3,0c1,0 2,0 3,0c1,0 2.29291,0.29291 3,1c0.70709,0.70709 1,3 1,5c0,2 0.29291,3.29291 1,4c0.70709,0.70709 1.4588,0.69345 2,2c0.38269,0.92389 0.29291,1.29291 1,2c0.70709,0.70709 1.29291,0.29291 2,1c0.70709,0.70709 0,2 0,3c0,4 -1,6 -1,8l-1,0l0,1l-1,0" id="svg_6" stroke-width="13" stroke="#000" fill="none"/>
  <path d="m316,583c0,-1 0,-2 1,-4c1,-2 1.29291,-2.29291 2,-3c1.41422,-1.41418 0.23462,-5.15222 1,-7c0.5412,-1.30658 1,-2 1,-3c0,-1 0,-2 0,-4c0,-1 0,-2 0,-3c0,-1 0,-2 0,-3c0,-1 -0.07611,-1.61731 -1,-2c-1.30655,-0.5412 -1,-2 -2,-2c-1,0 -0.4595,3.05353 0,5c0.51373,2.17627 1.4588,2.69342 2,4c0.38269,0.92389 0,-1 0,-5c0,-3 0,-9 0,-11c0,-4 0,-5 0,-7c0,-1 0,-2 0,-4c0,-1 0,-2 0,-3c0,-1 0,-2 0,-3c0,-1 0,-2 0,-3c0,-1 0,-2 0,-3c0,-1 0,-2 0,-3c0,-1 0,-2 0,-3c0,-1 0,-2 0,-3c0,-1 0,-2 0,-3c0,-1 0,-3 0,-4c0,-1 0,-3 0,-4c0,-2 0,-3 0,-4c0,-2 0,-3 0,-4c0,-1 0,-2 0,-3c0,-1 0,-3 0,-4c0,-2 0,-3 0,-4c0,-1 0,-2 0,-4c0,-1 0,-2 0,-3c0,-1 0,-2 0,-3c0,-2 0,-3 0,-5c0,-1 0,-2 0,-3c0,-1 0,-2 0,-3c0,-2 0,-3 0,-4c0,-2 0,-3 0,-5c0,-1 0,-3 0,-6c0,-1 0,-3 0,-6c0,-1 0,-2 0,-4c0,-2 0,-3 0,-5c0,-1 0,-2 0,-4c0,-1 0,-3 0,-4c0,-1 0,-3 0,-4c0,-3 0,-5 0,-8c0,-1 0,-3 0,-5c0,-2 0,-4 0,-6c0,-1 0,-3 0,-4c0,-1 0,-2 0,-3c0,-2 0,-4 0,-6c0,-1 0,-3 0,-5c0,-2 0,-4 0,-6c0,-2 0,-3 0,-4c0,-1 0,-4 0,-7c0,-1 0,-3 0,-5c0,-1 0,-3 0,-4c0,-2 0,-4 0,-6c0,-3 0,-4 0,-6c0,-1 0,-2 0,-5c0,-2 0,-3 0,-5c0,-1 0,-3 0,-4c0,-2 0,-4 0,-5c0,-2 0,-4 0,-7c0,-3 0,-4 0,-5c0,-4 0,-6 0,-9c0,-1 0,-2 0,-3l0,-1l0,-1" id="svg_7" stroke-width="13" stroke="#000" fill="none"/>
 </g>
</svg>