<svg width="600" height="600" xmlns="http://www.w3.org/2000/svg">
 <title>oktas-5</title>

 <g>
  <title>Layer 1</title>
  <ellipse fill="#fff" stroke="#000" cx="301.875" cy="300" id="svg_1" rx="290" ry="290" stroke-width="13"/>
  <line fill="none" stroke="#000" stroke-width="13" x1="300" y1="595" x2="300" y2="15" id="svg_5"/>
  <line id="svg_2" y2="300" x2="588" y1="300" x1="7" stroke-width="13" stroke="#000" fill="none"/>
  <line id="svg_15" y2="21.87505" x2="383.00003" y1="21.87505" x1="305.625" stroke-width="13" stroke="#000" fill="none"/>
  <line id="svg_32" y2="198.75002" x2="569.87499" y1="198.75002" x1="305.62499" stroke-width="13" stroke="#000" fill="none"/>
  <line id="svg_34" y2="221.87501" x2="576.125" y1="221.87501" x1="303.74999" stroke-width="13" stroke="#000" fill="none"/>
  <g id="svg_37">
   <line id="svg_10" y2="289.375" x2="589.875" y1="289.375" x1="301.875" stroke-width="13" stroke="#000" fill="none"/>
   <line id="svg_11" y2="276.875" x2="587.375" y1="276.875" x1="299.375" stroke-width="13" stroke="#000" fill="none"/>
   <line id="svg_12" y2="266.25001" x2="585.5" y1="266.25001" x1="301.875" stroke-width="13" stroke="#000" fill="none"/>
   <line id="svg_13" y2="255.625" x2="582.99997" y1="255.625" x1="304.375" stroke-width="13" stroke="#000" fill="none"/>
   <line id="svg_14" y2="244.37501" x2="581.74997" y1="244.37501" x1="303.125" stroke-width="13" stroke="#000" fill="none"/>
   <line id="svg_16" y2="33.12505" x2="409.25003" y1="33.12505" x1="306.25" stroke-width="13" stroke="#000" fill="none"/>
   <line id="svg_17" y2="44.37505" x2="434.25003" y1="44.37505" x1="305.62499" stroke-width="13" stroke="#000" fill="none"/>
   <line id="svg_18" y2="56.25004" x2="456.12503" y1="56.25004" x1="306.25" stroke-width="13" stroke="#000" fill="none"/>
   <line id="svg_19" y2="68.12504" x2="471.12501" y1="68.12504" x1="305.62498" stroke-width="13" stroke="#000" fill="none"/>
   <line id="svg_20" y2="23.75005" x2="383.62503" y1="23.75005" x1="306.25" stroke-width="13" stroke="#000" fill="none"/>
   <line id="svg_21" y2="78.75004" x2="485.5" y1="78.75004" x1="305.62498" stroke-width="13" stroke="#000" fill="none"/>
   <line id="svg_22" y2="90.62504" x2="497.375" y1="90.62504" x1="305.62498" stroke-width="13" stroke="#000" fill="none"/>
   <line id="svg_23" y2="100.62504" x2="510.50002" y1="100.62504" x1="305.62501" stroke-width="13" stroke="#000" fill="none"/>
   <line id="svg_24" y2="113.12503" x2="519.87504" y1="113.12503" x1="305.62502" stroke-width="13" stroke="#000" fill="none"/>
   <line id="svg_25" y2="123.75003" x2="529.25002" y1="123.75003" x1="305.625" stroke-width="13" stroke="#000" fill="none"/>
   <line id="svg_26" y2="134.37503" x2="536.75002" y1="134.37503" x1="306.25" stroke-width="13" stroke="#000" fill="none"/>
   <line id="svg_27" y2="145.62503" x2="544.87502" y1="145.62503" x1="305.62501" stroke-width="13" stroke="#000" fill="none"/>
   <line id="svg_28" y2="155.62503" x2="551.12501" y1="155.62503" x1="306.25" stroke-width="13" stroke="#000" fill="none"/>
   <line id="svg_29" y2="166.87502" x2="556.12498" y1="166.87502" x1="306.24998" stroke-width="13" stroke="#000" fill="none"/>
   <line id="svg_30" y2="177.50002" x2="561.12497" y1="177.50002" x1="305.62497" stroke-width="13" stroke="#000" fill="none"/>
   <line id="svg_31" y2="189.37502" x2="564.25001" y1="189.37502" x1="305" stroke-width="13" stroke="#000" fill="none"/>
   <line id="svg_33" y2="209.37501" x2="574.24997" y1="209.37501" x1="304.37497" stroke-width="36" stroke="#000" fill="none"/>
   <line id="svg_35" y2="233.75001" x2="580.50003" y1="233.75001" x1="304.37502" stroke-width="13" stroke="#000" fill="none"/>
  </g>
  <g id="svg_61" transform="rotate(90, 445.25, 444.688)">
   <line id="svg_38" y2="577.49995" x2="590.50001" y1="577.49995" x1="302.50001" stroke-width="13" stroke="#000" fill="none"/>
   <line id="svg_39" y2="564.99995" x2="588.00001" y1="564.99995" x1="300.00001" stroke-width="13" stroke="#000" fill="none"/>
   <line id="svg_40" y2="554.37495" x2="586.12501" y1="554.37495" x1="302.50001" stroke-width="13" stroke="#000" fill="none"/>
   <line id="svg_41" y2="543.74995" x2="583.62498" y1="543.74995" x1="305.00001" stroke-width="13" stroke="#000" fill="none"/>
   <line id="svg_42" y2="532.49995" x2="582.37498" y1="532.49995" x1="303.75001" stroke-width="13" stroke="#000" fill="none"/>
   <line id="svg_43" y2="321.25" x2="409.87503" y1="321.25" x1="306.87501" stroke-width="13" stroke="#000" fill="none"/>
   <line id="svg_44" y2="332.49999" x2="434.87503" y1="332.49999" x1="306.24999" stroke-width="13" stroke="#000" fill="none"/>
   <line id="svg_45" y2="344.37499" x2="456.75004" y1="344.37499" x1="306.87501" stroke-width="13" stroke="#000" fill="none"/>
   <line id="svg_46" y2="356.24999" x2="471.75002" y1="356.24999" x1="306.24999" stroke-width="13" stroke="#000" fill="none"/>
   <line id="svg_47" y2="311.875" x2="384.25004" y1="311.875" x1="306.875" stroke-width="13" stroke="#000" fill="none"/>
   <line id="svg_48" y2="366.87499" x2="486.12501" y1="366.87499" x1="306.24999" stroke-width="13" stroke="#000" fill="none"/>
   <line id="svg_49" y2="378.74998" x2="498" y1="378.74998" x1="306.24999" stroke-width="13" stroke="#000" fill="none"/>
   <line id="svg_50" y2="388.74998" x2="511.12503" y1="388.74998" x1="306.25001" stroke-width="13" stroke="#000" fill="none"/>
   <line id="svg_51" y2="401.24998" x2="520.50004" y1="401.24998" x1="306.25002" stroke-width="13" stroke="#000" fill="none"/>
   <line id="svg_52" y2="411.87498" x2="529.87503" y1="411.87498" x1="306.25001" stroke-width="13" stroke="#000" fill="none"/>
   <line id="svg_53" y2="422.49998" x2="537.37503" y1="422.49998" x1="306.875" stroke-width="13" stroke="#000" fill="none"/>
   <line id="svg_54" y2="433.74998" x2="545.50003" y1="433.74998" x1="306.25002" stroke-width="13" stroke="#000" fill="none"/>
   <line id="svg_55" y2="443.74997" x2="551.75002" y1="443.74997" x1="306.87501" stroke-width="13" stroke="#000" fill="none"/>
   <line id="svg_56" y2="454.99997" x2="556.74999" y1="454.99997" x1="306.87499" stroke-width="13" stroke="#000" fill="none"/>
   <line id="svg_57" y2="465.62497" x2="561.74998" y1="465.62497" x1="306.24998" stroke-width="13" stroke="#000" fill="none"/>
   <line id="svg_58" y2="477.49996" x2="564.87501" y1="477.49996" x1="305.62501" stroke-width="13" stroke="#000" fill="none"/>
   <line id="svg_59" y2="497.49996" x2="574.87497" y1="497.49996" x1="304.99997" stroke-width="36" stroke="#000" fill="none"/>
   <line id="svg_60" y2="521.87496" x2="581.12503" y1="521.87496" x1="305.00002" stroke-width="13" stroke="#000" fill="none"/>
  </g>
  <line fill="none" stroke="#000" stroke-width="13" x1="585.62484" y1="303.74989" x2="588.12484" y2="320.62489" id="svg_62"/>
  <line fill="none" stroke="#000" stroke-width="13" x1="377" y1="296.87489" x2="376.24988" y2="578.74984" id="svg_63"/>
  <path d="m319.99994,302.35291c0,3.52942 0,4.7059 0,7.05884c0,1.17645 0,4.70587 0,8.23529c0,1.17645 0,2.35294 0,3.52942c0,1.17645 0,2.35294 0,3.52939c0,1.17648 0,2.35294 0,3.52942c0,1.17648 0.57205,2.1456 1.17645,4.70587c0.27029,1.14502 0,3.52942 0,4.7059l0,2.35294l0,1.17648" id="svg_3" stroke-width="13" stroke="#000" fill="none"/>
  <path d="m497.64697,512.94116c0,-8.23532 -1.17645,-10.58826 -1.17645,-12.94119c0,-5.88235 0,-11.76471 0,-17.64706c0,-3.52942 0,-8.23529 0,-11.76471c0,-3.52942 0,-5.88235 0,-9.41177c0,-1.17645 0,-3.52939 0,-5.88235c0,-2.35294 0,-4.70587 0,-5.88235c0,-2.35294 0,-4.70587 0,-7.05881c0,-2.35294 0,-3.52942 0,-7.05884c0,-2.35294 1.17645,-4.70587 1.17645,-5.88235c0,-3.52939 0,-4.70587 0,-5.88232c0,-2.35297 0,-3.52942 0,-5.88235c0,-2.35297 0,-3.52942 0,-7.05884c0,-2.35294 0,-3.52942 0,-4.70587c0,-2.35294 0,-4.7059 0,-7.05884c0,-2.35294 -1.17645,-5.88235 -1.17645,-8.23529c0,-1.17645 0,-2.35294 0,-3.52942c0,-2.35294 0,-4.70587 0,-7.05881c0,-1.17648 0.90042,-3.70853 0,-5.88235c-0.63672,-1.53714 -1.17648,-2.35294 -1.17648,-5.88235c0,-2.35294 0,-7.05884 0,-8.23529c0,-2.35294 0,-3.52942 0,-4.70587c0,-4.7059 0,-5.88235 0,-7.05884c0,-1.17648 0,-2.35294 0,-3.52942c0,-2.35294 0,-3.52939 0,-4.70587c0,-1.17648 0,-2.35294 0,-4.70587c0,-2.35297 0,-3.52942 0,-4.7059c0,-1.17645 0,-2.35294 0,-3.52942c0,-2.35294 0,-3.52939 0,-4.70587c0,-2.35294 0,-3.52942 0,-4.70587c0,-1.17648 0,-2.35294 0,-3.52942c0,-1.17648 0,-2.35294 0,-3.52942c0,-1.17645 0,-2.35294 0,-3.52939c0,-1.17648 -1.17645,-1.17648 -2.35294,-1.17648c-1.17648,0 -2.35294,0 -3.52942,0c-1.17645,0 -2.37939,0.43124 -5.88235,0c-4.81436,-0.59268 -9.41174,-1.17648 -10.58823,-1.17648c-1.17648,0 -1.52106,-0.34457 -2.35294,-1.17645c-1.66379,-1.66379 -4.7059,0 -5.88235,0c-1.17648,0 -2.35294,0 -3.52942,0c-1.17645,0 -2.35294,0 -3.52942,0c-2.35294,0 -4.34521,-0.53976 -5.88235,-1.17648c-2.17383,-0.90042 -3.52939,0 -5.88235,0c-3.52939,0 -5.88232,0 -7.05881,0c-2.35294,0 -3.52942,0 -5.88235,0c-1.17648,0 -4.70587,0 -7.05881,0c-2.35297,0 -3.52942,0 -2.35297,0c1.17648,0 2.35297,0 3.52942,0c2.35294,0 6.0397,-1.3515 11.76471,0c2.5603,0.6044 3.52942,1.17648 4.70587,1.17648c2.35294,0 4.7059,0 7.05884,0c2.35294,0 4.70587,0 7.05881,0c1.17648,0 2.35297,0 4.7059,0c2.35294,0 4.70587,0 5.88235,0c1.17645,0 3.52939,0 5.88235,0c3.52939,0 5.88232,0 8.23529,0c2.35294,0 3.52939,0 5.88235,0c1.17645,0 3.52939,0 7.05881,0c1.17648,0 3.52942,0 5.88235,0c2.35294,0 5.88235,0 7.05884,0c2.35294,0 3.52939,0 4.70587,0c2.35297,0 3.52942,0 4.70587,0c1.17645,0 2.35297,0 3.52942,0c1.17645,0 2.35297,0 3.52942,0c1.17645,0 2.35291,0 4.70587,0c1.17645,0 2.35297,0 3.52942,0c1.17645,0 2.35297,0 3.52942,0c1.17645,0 2.35291,0 3.52942,0c1.17645,0 3.52942,0 4.70587,0c1.17645,0 2.35291,0 3.52942,0c1.17645,0 2.35291,0 3.52942,0c1.17645,0 2.35291,0 3.52936,0c1.17651,0 2.35297,0 3.52942,0c1.17651,0 2.35297,0 3.52942,0c1.17651,0 2.35297,1.17645 3.52942,1.17645c1.17645,0 2.35297,0 3.52942,0c1.17645,0 3.61896,-0.45023 4.70587,0c1.53711,0.63672 2.35297,1.17648 3.52942,1.17648c1.17645,0 2.35297,1.17648 3.52942,1.17648c1.17645,0 1.17645,1.17645 2.35297,1.17645c1.17645,0 1.52106,0.3446 2.35291,1.17648c0.83185,0.83188 0,2.35294 0,3.52939c0,1.17648 0,2.35297 0,3.52942c0,1.17648 0,2.35294 0,3.52942c0,2.35294 0,3.52942 0,4.70587c0,2.35294 0,3.52942 0,4.7059c0,1.17645 0,2.35294 0,3.52939c0,1.17648 0,2.35297 0,3.52942c0,1.17648 0,2.35294 0,3.52942l0,1.17648" id="svg_4" stroke-width="13" stroke="#000" fill="none"/>
  <path d="m305.88229,277.64703c0,1.17645 1.17645,1.17645 2.35294,1.17645c2.35294,0 7.05881,0 10.58823,0c4.7059,0 8.23529,0 12.94119,0c4.70587,0 7.05881,0 9.41174,0c3.52942,0 5.88235,-1.17645 8.23529,-1.17645c4.7059,0 7.05884,-1.17648 10.58826,-1.17648c2.35294,0 3.52939,0 5.88235,0c2.35294,0 5.88235,-1.17645 9.41174,-1.17645c2.35297,0 4.7059,0 5.88235,0c2.35294,0 7.05884,0 8.23529,0c2.35297,0 4.7059,0 7.05884,0c1.17645,0 2.35294,0 3.52942,0c1.17645,0 3.52939,0 2.35294,0c-1.17648,0 -2.35294,0 -4.7059,0c-3.52939,0 -10.58823,0 -15.2941,0c-3.52942,0 -4.70587,0 -5.88235,0c-1.17648,0 -2.35294,0 -3.52942,0c-1.17645,0 -3.87399,-0.83188 -4.70587,0c-0.83188,0.83188 -0.34457,1.52103 -1.17648,2.35294c-0.83188,0.83188 -1.99228,0.53976 -3.52942,1.17645c-1.08691,0.4502 -3.32202,0.57208 -5.88232,1.17648c-1.14502,0.27029 0,0 1.17645,0c2.35294,0 7.05884,0 10.58823,0c3.52942,0 5.67499,-0.57208 8.23532,-1.17648c2.28998,-0.54059 3.52939,0 5.88232,0c1.17648,0 2.35297,0 4.7059,0c1.17645,0 2.35294,0 3.52942,0c1.17645,0 3.52939,0 4.70587,0c1.17645,0 3.52942,0 4.70587,0c2.35294,0 3.52942,0 5.88235,0c1.17648,0 2.35294,0 5.88235,0c2.35294,0 3.52942,0 5.88235,0c1.17648,0 3.52942,1.17648 4.70587,1.17648c2.35297,0 5.5217,0.53976 7.05884,1.17648c1.08691,0.4502 2.35294,0 4.70587,0c1.17648,0 3.52942,0 4.7059,0c2.35294,0 3.52939,0 5.88232,0c2.35297,0 4.7059,0 7.05884,0c2.35294,0 4.70587,0 7.05884,0c2.35294,0 4.70587,0 5.88232,0c1.17648,0 3.52942,0 5.88235,0c1.17648,0 3.52942,-1.17648 4.7059,-1.17648c1.17645,0 3.52939,0 5.88235,0c2.35294,0 4.70587,-1.17648 8.23529,-1.17648c2.35294,0 4.70587,-1.17645 5.88235,-1.17645c1.17645,0 3.52939,0 4.70587,0c1.17648,0 3.52942,0 5.88235,0c2.35294,0 4.70587,0 7.05881,0c1.17651,0 3.52942,0 5.88239,0c2.35291,0 4.70587,0 7.05878,0c2.35297,0 4.70593,0 7.05884,0c1.17651,0 2.41589,-0.54059 4.70587,0c2.5603,0.6044 4.70593,1.17645 5.88239,1.17645c2.35291,0 3.52942,0 4.70587,0c2.35297,0 3.52942,0 5.88232,0c2.35297,0 3.59235,-0.54059 5.88239,0c2.5603,0.6044 3.52942,1.17648 5.88232,1.17648c1.17651,0 2.35297,0 3.52942,0c1.17651,0 2.35297,0 3.52942,0c2.35297,0 3.52942,0 4.70587,0c1.17651,0 2.69757,-0.83188 3.52942,0c0.83191,0.83191 1.17651,1.17648 2.35297,1.17648l1.17645,0" id="svg_6" stroke-width="13" stroke="#000" fill="none"/>
  <path d="m309.41171,24.70587c0,1.17647 0,3.52941 0,5.88235c0,3.52941 2.35294,7.05882 2.35294,9.41176c0,2.35294 0.53976,4.34523 1.17645,5.88235c0.4502,1.08692 0,3.52941 0,4.70588c0,1.17647 0,3.52941 0,4.70588c0,1.17647 0,2.35294 0,3.52941c0,1.17647 0,2.35294 0,0c0,-2.35294 -1.17645,-4.70588 -1.17645,-9.41176c0,-3.52941 0,-8.23529 0,-9.41177c0,-1.17647 0,-2.35294 0,-3.52941c0,-1.17647 0,-2.35294 -1.17648,-2.35294c-1.17645,0 -1.17645,2.35294 -1.17645,4.70588c0,4.70588 0,5.88235 0,8.23529c0,1.17647 0,2.35294 0,4.70588c0,2.35294 1.17645,5.88235 1.17645,7.05882c0,2.35294 1.17648,2.35294 1.17648,3.52941c0,1.17647 0,3.52942 0,4.70588c0,2.35294 0,3.52941 0,4.70588c0,1.17648 0,2.35294 0,3.52941c0,1.17648 1.70462,2.10055 0,-3.52941c-1.22922,-4.05981 -5.29126,-10.50093 -5.88235,-16.47058c-0.23184,-2.34149 0,-3.52941 0,-4.70588c0,-1.17647 0,-4.70588 0,-5.88235c0,-1.17647 0,-2.35294 0,-4.70588c0,-2.35294 3.52942,-8.23529 0,-8.23529c-2.35294,0 -0.74524,3.55585 -1.17648,7.05882c-0.59268,4.81436 -1.17645,9.41176 -1.17645,12.94117c0,2.35294 0,4.70588 0,7.05882c0,3.52941 0,7.05883 0,11.76471c0,3.52941 -0.28748,8.25292 0,10.58823c0.59268,4.81437 1.17645,7.05882 1.17645,10.58823c0,2.35294 0,3.52941 0,5.88235c0,2.35294 0,4.70588 0,9.41177c0,2.35294 0,3.52941 0,4.70588c0,2.35294 0,3.52941 0,5.88235c0,1.17647 0.53976,3.16874 1.17648,4.70588c0.45023,1.08691 0,3.52941 0,4.70589c0,3.5294 0,7.05882 0,9.41176c0,4.70589 0,5.88235 0,7.05882c0,1.17647 0,3.52942 0,5.88235c0,3.52942 0,4.70589 0,7.05882c0,1.17647 0,3.52942 0,5.88235c0,5.88235 0,7.05882 0,8.23529c0,2.35294 0,9.41176 0,11.76471c0,2.35294 0,5.88235 0,7.05882c0,2.35294 0,3.5294 0,4.70589c0,2.35294 0,4.70587 0,5.88234c0,4.70589 0,5.88235 0,7.05882c0,2.35295 0,3.52942 0,4.70589c0,3.52942 0,4.70589 0,5.88235c0,2.35294 0,3.52942 0,7.05882c0,2.35294 0,4.70589 0,5.88235c0,2.35294 0,5.88235 0,7.05882c0,1.17647 0,3.5294 0,4.70589l0,1.17647l0,1.17647l0,1.17647" id="svg_7" stroke-width="13" stroke="#000" fill="none"/>
  <path d="m304.70581,295.2941c0,2.35294 0,4.70587 0,7.05881c0,4.7059 0,9.41177 0,11.76471c0,2.35294 0,3.52942 0,5.88235c0,3.52942 0,5.88235 0,9.41177c0,2.35294 -0.27029,4.73734 0,5.88235c0.6044,2.5603 1.17648,3.52939 1.17648,5.88235c0,2.35294 -0.27029,3.56085 0,4.70587c0.6044,2.56027 1.17645,3.52942 1.17645,4.70587c0,1.17648 -0.27029,2.3844 0,3.52942c0.6044,2.5603 1.17648,3.52942 1.17648,4.70587c0,1.17648 0,3.52942 0,4.7059c0,2.35294 0,3.52939 0,4.70587c0,1.17648 0,2.35294 0,3.52942c0,1.17645 0,2.35294 0,3.52942c0,1.17645 0,2.35294 0,3.52939c0,1.17648 0,2.35294 0,3.52942c0,1.17648 -0.53976,1.99228 -1.17648,3.52942c-0.90042,2.17383 0,3.52942 0,4.70587c0,1.17648 0,2.35294 0,4.70587c0,2.35297 0,3.52942 0,4.7059c0,2.35294 0,3.52942 0,5.88235c0,1.17645 0,4.70587 0,7.05881c0,3.52942 0,4.7059 0,7.05884c0,2.35294 0,4.70587 0,8.23529c0,1.17645 0,4.70587 0,5.88235c0,3.52942 0,5.88235 0,8.23529c0,3.52942 0,5.88235 0,10.58823c0,2.35294 0,4.7059 0,5.88235c0,5.88235 0,8.23529 0,10.58823c0,1.17648 0,2.35297 0,3.52942c0,1.17648 0,2.35294 0,3.52942c0,1.17645 0,2.35294 0,1.17645c0,-1.17645 0,0 0,1.17648c0,1.17648 -0.18845,3.54462 0,4.70587c0.59595,3.6723 2.92502,6.8515 3.52942,9.41177c0.54059,2.29001 0.53976,3.16873 1.17648,4.70587c0.90045,2.17386 -0.54059,3.59235 0,5.88235c0.6044,2.5603 1.74854,4.49854 2.35294,7.05884c0.27029,1.14499 0,3.52942 0,4.70587c0,1.17645 0,3.52942 0,4.70587c0,2.35297 0,4.70587 0,5.88239c0,2.35291 0,3.52942 0,5.88232c0,2.35297 0,3.52942 0,5.88239c0,1.17645 -0.53976,1.99225 -1.17648,3.52942c-0.4502,1.08691 0.45023,3.6189 0,4.70587c-0.63669,1.53711 -1.17645,3.52942 -1.17645,4.70587c0,1.17645 -0.53976,1.99225 -1.17648,3.52942c-0.4502,1.08691 0,2.35291 0,4.70587c0,1.17645 -1.17645,3.52942 -1.17645,4.70587c0,1.17645 0,3.52942 0,4.70587c0,1.17651 0,2.35297 0,3.52942c0,1.17645 0,2.35297 0,1.17645c0,-1.17645 0,-3.52936 0,-4.70587c0,-3.52942 0,-4.70587 0,-3.52942c0,1.17651 0,2.35297 0,3.52942c0,2.35297 -0.34457,2.69751 -1.17648,3.52942c-0.83188,0.83185 -1.17648,1.17645 -1.17648,2.35297c0,1.17645 0,2.35291 0,3.52942c0,1.17645 0,2.35291 0,-3.52942c0,-2.35297 0.45773,-8.27936 1.17648,-14.11768c0.59268,-4.81433 0.79959,-7.08923 1.17648,-9.41174c0.59592,-3.6723 1.75699,-5.7395 2.35294,-9.41174c0.37692,-2.32257 0,-3.52942 0,-4.70593c0,-1.17645 1.17645,-2.35291 1.17645,-5.88232c0,-2.35297 0,-3.52942 0,-4.70587c0,-1.17651 0.90045,-3.70856 0,-5.88239c-0.63669,-1.53711 -1.17645,-3.52942 -1.17645,-4.70587c0,-2.35291 0,-3.52942 0,-4.70587c0,-1.17648 0,-2.35294 0,-3.52942c0,-1.17645 0,-2.35294 0,-3.52942c0,-1.17645 0,-2.35294 0,-3.52939c0,-1.17648 -1.17648,0 -1.17648,4.70587c0,8.23532 -1.17645,14.11765 -1.17645,16.47061c0,2.35291 -1.17648,4.70587 -1.17648,5.88232c0,3.52942 0,5.88239 0,7.05884c0,1.17645 0,-1.17645 0,-4.70587c0,-4.70593 0,-10.58826 0,-12.94122c0,-1.17645 0,-2.35291 0,-3.52936l1.17648,-1.17651l0,-1.17645" id="svg_8" stroke-width="13" stroke="#000" fill="none"/>
 </g>
</svg>